M48
;DRILL file {KiCad 5.0.1} date Mon 21 Jan 2019 01:21:13 PM CET
;FORMAT={-:-/ absolute / metric / decimal}
FMAT,2
METRIC,TZ
T1C0.400
T2C0.762
T3C1.000
T4C1.100
T5C1.200
%
G90
G05
M71
T1
X31.813Y-37.91
X33.782Y-51.562
X34.544Y-40.64
X37.274Y-45.021
X37.338Y-32.322
X38.862Y-42.672
X41.148Y-48.006
X41.402Y-32.258
X46.736Y-46.101
X52.07Y-51.562
X53.34Y-43.434
X55.626Y-41.402
X65.786Y-45.974
X74.676Y-38.608
X75.438Y-49.784
X75.438Y-54.864
X75.946Y-42.164
X77.978Y-33.274
X78.041Y-36.512
X79.502Y-49.784
X85.598Y-36.322
X86.106Y-94.234
X87.376Y-111.506
X89.094Y-84.391
X89.789Y-57.531
X89.822Y-85.312
X89.916Y-68.834
X90.614Y-87.503
X91.597Y-85.966
X92.011Y-77.025
X92.075Y-78.486
X92.456Y-83.376
X93.726Y-92.456
X95.631Y-95.25
X97.536Y-32.512
X97.536Y-92.456
X97.79Y-42.672
X99.441Y-77.216
X99.441Y-83.376
X99.441Y-95.25
X99.568Y-78.486
X99.949Y-60.96
X101.346Y-92.456
X102.108Y-64.516
X103.251Y-95.25
X104.14Y-42.672
X104.14Y-51.816
X105.156Y-92.456
X107.061Y-78.486
X107.061Y-83.439
X107.061Y-95.25
X107.159Y-77.13
X108.966Y-92.456
X109.855Y-64.516
X110.871Y-95.25
X112.776Y-92.456
X113.03Y-61.976
X114.681Y-77.216
X114.681Y-78.486
X114.681Y-83.439
X114.681Y-95.25
X116.586Y-92.456
X118.491Y-95.25
X120.396Y-92.456
X121.285Y-51.308
X121.92Y-78.486
X122.301Y-95.25
X122.428Y-42.672
X122.682Y-61.976
X122.682Y-67.818
X124.46Y-112.522
X126.238Y-92.011
X131.445Y-84.074
X132.286Y-80.328
X135.636Y-92.011
X135.763Y-62.738
X136.144Y-81.915
X138.049Y-78.93
X140.843Y-68.199
X142.367Y-84.074
X143.208Y-80.328
X146.558Y-92.011
X147.193Y-81.915
X148.971Y-78.803
X152.019Y-68.072
X153.289Y-84.074
X154.13Y-80.328
X157.48Y-62.992
X157.48Y-92.011
X157.988Y-81.788
X159.766Y-78.93
X160.528Y-69.342
X164.211Y-84.074
X165.052Y-80.328
X166.37Y-111.76
X166.624Y-92.011
T2
X31.75Y-53.594
X31.75Y-56.134
X31.75Y-58.674
X31.75Y-61.214
X31.75Y-63.754
X31.75Y-66.294
X31.75Y-68.834
X31.75Y-71.374
X31.75Y-73.914
X31.75Y-76.454
X31.75Y-78.994
X31.75Y-81.534
X31.75Y-84.074
X31.75Y-86.614
X34.29Y-53.594
X34.29Y-56.134
X34.29Y-58.674
X34.29Y-61.214
X34.29Y-63.754
X34.29Y-66.294
X34.29Y-68.834
X34.29Y-71.374
X34.29Y-73.914
X34.29Y-76.454
X34.29Y-78.994
X34.29Y-81.534
X34.29Y-84.074
X34.29Y-86.614
X36.83Y-53.594
X36.83Y-56.134
X36.83Y-58.674
X36.83Y-61.214
X36.83Y-63.754
X36.83Y-66.294
X36.83Y-68.834
X36.83Y-71.374
X36.83Y-73.914
X36.83Y-76.454
X36.83Y-78.994
X36.83Y-81.534
X36.83Y-84.074
X36.83Y-86.614
X39.37Y-53.594
X39.37Y-56.134
X39.37Y-58.674
X39.37Y-61.214
X39.37Y-63.754
X39.37Y-66.294
X39.37Y-68.834
X39.37Y-71.374
X39.37Y-73.914
X39.37Y-76.454
X39.37Y-78.994
X39.37Y-81.534
X39.37Y-84.074
X39.37Y-86.614
X41.91Y-53.594
X41.91Y-56.134
X41.91Y-58.674
X41.91Y-61.214
X41.91Y-63.754
X41.91Y-66.294
X41.91Y-68.834
X41.91Y-71.374
X41.91Y-73.914
X41.91Y-76.454
X41.91Y-78.994
X41.91Y-81.534
X41.91Y-84.074
X41.91Y-86.614
X44.45Y-53.594
X44.45Y-56.134
X44.45Y-58.674
X44.45Y-61.214
X44.45Y-63.754
X44.45Y-66.294
X44.45Y-68.834
X44.45Y-71.374
X44.45Y-73.914
X44.45Y-76.454
X44.45Y-78.994
X44.45Y-81.534
X44.45Y-84.074
X44.45Y-86.614
X46.99Y-53.594
X46.99Y-56.134
X46.99Y-58.674
X46.99Y-61.214
X46.99Y-63.754
X46.99Y-66.294
X46.99Y-68.834
X46.99Y-71.374
X46.99Y-73.914
X46.99Y-76.454
X46.99Y-78.994
X46.99Y-81.534
X46.99Y-84.074
X46.99Y-86.614
X49.53Y-53.594
X49.53Y-56.134
X49.53Y-58.674
X49.53Y-61.214
X49.53Y-63.754
X49.53Y-66.294
X49.53Y-68.834
X49.53Y-71.374
X49.53Y-73.914
X49.53Y-76.454
X49.53Y-78.994
X49.53Y-81.534
X49.53Y-84.074
X49.53Y-86.614
X52.07Y-53.594
X52.07Y-56.134
X52.07Y-58.674
X52.07Y-61.214
X52.07Y-63.754
X52.07Y-66.294
X52.07Y-68.834
X52.07Y-71.374
X52.07Y-73.914
X52.07Y-76.454
X52.07Y-78.994
X52.07Y-81.534
X52.07Y-84.074
X52.07Y-86.614
X54.61Y-53.594
X54.61Y-56.134
X54.61Y-58.674
X54.61Y-61.214
X54.61Y-63.754
X54.61Y-66.294
X54.61Y-68.834
X54.61Y-71.374
X54.61Y-73.914
X54.61Y-76.454
X54.61Y-78.994
X54.61Y-81.534
X54.61Y-84.074
X54.61Y-86.614
X57.15Y-53.594
X57.15Y-56.134
X57.15Y-58.674
X57.15Y-61.214
X57.15Y-63.754
X57.15Y-66.294
X57.15Y-68.834
X57.15Y-71.374
X57.15Y-73.914
X57.15Y-76.454
X57.15Y-78.994
X57.15Y-81.534
X57.15Y-84.074
X57.15Y-86.614
X59.69Y-53.594
X59.69Y-56.134
X59.69Y-58.674
X59.69Y-61.214
X59.69Y-63.754
X59.69Y-66.294
X59.69Y-68.834
X59.69Y-71.374
X59.69Y-73.914
X59.69Y-76.454
X59.69Y-78.994
X59.69Y-81.534
X59.69Y-84.074
X59.69Y-86.614
X62.23Y-53.594
X62.23Y-56.134
X62.23Y-58.674
X62.23Y-61.214
X62.23Y-63.754
X62.23Y-66.294
X62.23Y-68.834
X62.23Y-71.374
X62.23Y-73.914
X62.23Y-76.454
X62.23Y-78.994
X62.23Y-81.534
X62.23Y-84.074
X62.23Y-86.614
X64.77Y-53.594
X64.77Y-56.134
X64.77Y-58.674
X64.77Y-61.214
X64.77Y-63.754
X64.77Y-66.294
X64.77Y-68.834
X64.77Y-71.374
X64.77Y-73.914
X64.77Y-76.454
X64.77Y-78.994
X64.77Y-81.534
X64.77Y-84.074
X64.77Y-86.614
X67.31Y-53.594
X67.31Y-56.134
X67.31Y-58.674
X67.31Y-61.214
X67.31Y-63.754
X67.31Y-66.294
X67.31Y-68.834
X67.31Y-71.374
X67.31Y-73.914
X67.31Y-76.454
X67.31Y-78.994
X67.31Y-81.534
X67.31Y-84.074
X67.31Y-86.614
X69.85Y-53.594
X69.85Y-56.134
X69.85Y-58.674
X69.85Y-61.214
X69.85Y-63.754
X69.85Y-66.294
X69.85Y-68.834
X69.85Y-71.374
X69.85Y-73.914
X69.85Y-76.454
X69.85Y-78.994
X69.85Y-81.534
X69.85Y-84.074
X69.85Y-86.614
T3
X137.414Y-66.675
X145.034Y-66.675
X87.63Y-38.354
X87.63Y-40.894
X87.63Y-43.434
X87.63Y-45.974
X87.63Y-48.514
X87.63Y-51.054
X87.63Y-53.594
X87.63Y-56.134
X87.63Y-58.674
X87.63Y-61.214
X87.63Y-63.754
X87.63Y-66.294
X87.63Y-68.834
X87.63Y-71.374
X87.63Y-73.914
X87.63Y-76.454
X87.63Y-78.994
X87.63Y-81.534
X87.63Y-84.074
X87.63Y-86.614
X81.28Y-38.354
X81.28Y-40.894
X81.28Y-43.434
X81.28Y-45.974
X81.28Y-48.514
X81.28Y-51.054
X81.28Y-53.594
X81.28Y-56.134
X81.28Y-58.674
X81.28Y-61.214
X81.28Y-63.754
X81.28Y-66.294
X81.28Y-68.834
X81.28Y-71.374
X81.28Y-73.914
X81.28Y-76.454
X81.28Y-78.994
X81.28Y-81.534
X81.28Y-84.074
X81.28Y-86.614
X83.82Y-38.354
X83.82Y-40.894
X83.82Y-43.434
X83.82Y-45.974
X83.82Y-48.514
X83.82Y-51.054
X83.82Y-53.594
X83.82Y-56.134
X83.82Y-58.674
X83.82Y-61.214
X83.82Y-63.754
X83.82Y-66.294
X83.82Y-68.834
X83.82Y-71.374
X83.82Y-73.914
X83.82Y-76.454
X83.82Y-78.994
X83.82Y-81.534
X83.82Y-84.074
X83.82Y-86.614
X77.47Y-38.354
X77.47Y-40.894
X77.47Y-43.434
X77.47Y-45.974
X77.47Y-48.514
X77.47Y-51.054
X77.47Y-53.594
X77.47Y-56.134
X77.47Y-58.674
X77.47Y-61.214
X77.47Y-63.754
X77.47Y-66.294
X77.47Y-68.834
X77.47Y-71.374
X77.47Y-73.914
X77.47Y-76.454
X77.47Y-78.994
X77.47Y-81.534
X77.47Y-84.074
X77.47Y-86.614
X148.161Y-76.644
X155.781Y-76.644
X31.75Y-45.72
X31.75Y-48.26
X31.75Y-50.8
X137.239Y-76.644
X144.859Y-76.644
X126.317Y-76.644
X133.937Y-76.644
X159.083Y-76.644
X166.703Y-76.644
X126.365Y-66.675
X133.985Y-66.675
X148.209Y-66.548
X155.829Y-66.548
X159.004Y-66.675
X166.624Y-66.675
T4
X106.045Y-43.434
X106.045Y-45.974
X106.045Y-48.514
X106.045Y-51.054
T5
X61.976Y-38.227
X65.786Y-38.227
X69.596Y-38.227
X159.004Y-48.895
X159.004Y-53.975
X159.004Y-59.055
X166.624Y-48.895
X166.624Y-53.975
X166.624Y-59.055
X139.192Y-105.791
X143.002Y-105.791
X48.768Y-38.227
X52.578Y-38.227
X56.388Y-38.227
X137.414Y-48.895
X137.414Y-53.975
X137.414Y-59.055
X145.034Y-48.895
X145.034Y-53.975
X145.034Y-59.055
X39.37Y-38.227
X43.18Y-38.227
X148.161Y-84.264
X148.161Y-89.344
X148.161Y-94.424
X155.781Y-84.264
X155.781Y-89.344
X155.781Y-94.424
X96.393Y-38.1
X100.203Y-38.1
X137.239Y-84.264
X137.239Y-89.344
X137.239Y-94.424
X144.859Y-84.264
X144.859Y-89.344
X144.859Y-94.424
X128.27Y-105.791
X132.08Y-105.791
X126.317Y-84.264
X126.317Y-89.344
X126.317Y-94.424
X133.937Y-84.264
X133.937Y-89.344
X133.937Y-94.424
X159.083Y-84.264
X159.083Y-89.344
X159.083Y-94.424
X166.703Y-84.264
X166.703Y-89.344
X166.703Y-94.424
X161.036Y-105.791
X164.846Y-105.791
X105.791Y-38.1
X109.601Y-38.1
X113.411Y-38.1
X117.221Y-38.1
X121.031Y-38.1
X124.841Y-38.1
X128.651Y-38.1
X132.461Y-38.1
X150.114Y-105.791
X153.924Y-105.791
X87.884Y-105.791
X91.694Y-105.791
X95.504Y-105.791
X99.314Y-105.791
X103.124Y-105.791
X106.934Y-105.791
X110.744Y-105.791
X114.554Y-105.791
X118.364Y-105.791
X122.174Y-105.791
X126.365Y-48.895
X126.365Y-53.975
X126.365Y-59.055
X133.985Y-48.895
X133.985Y-53.975
X133.985Y-59.055
X138.049Y-38.1
X141.859Y-38.1
X145.669Y-38.1
X149.479Y-38.1
X153.289Y-38.1
X157.099Y-38.1
X160.909Y-38.1
X164.719Y-38.1
X148.209Y-48.768
X148.209Y-53.848
X148.209Y-58.928
X155.829Y-48.768
X155.829Y-53.848
X155.829Y-58.928
T0
M30
