%TF.GenerationSoftware,KiCad,Pcbnew,5.0.1*%
%TF.CreationDate,2019-01-21T13:20:35+01:00*%
%TF.ProjectId,PowerCommander,506F776572436F6D6D616E6465722E6B,rev?*%
%TF.SameCoordinates,Original*%
%TF.FileFunction,Legend,Bot*%
%TF.FilePolarity,Positive*%
%FSLAX46Y46*%
G04 Gerber Fmt 4.6, Leading zero omitted, Abs format (unit mm)*
G04 Created by KiCad (PCBNEW 5.0.1) date Mon 21 Jan 2019 01:20:35 PM CET*
%MOMM*%
%LPD*%
G01*
G04 APERTURE LIST*
%ADD10C,0.150000*%
%ADD11C,0.120000*%
G04 APERTURE END LIST*
D10*
X85000000Y-97500000D02*
X85000000Y-111500000D01*
X87500000Y-114000000D02*
G75*
G02X85000000Y-111500000I0J2500000D01*
G01*
X82500000Y-95000000D02*
G75*
G02X85000000Y-97500000I0J-2500000D01*
G01*
X32500000Y-95000000D02*
X82500000Y-95000000D01*
X166000000Y-30000000D02*
G75*
G02X168500000Y-32500000I0J-2500000D01*
G01*
X168500000Y-111500000D02*
G75*
G02X166000000Y-114000000I-2500000J0D01*
G01*
X32500000Y-95000000D02*
G75*
G02X30000000Y-92500000I0J2500000D01*
G01*
X30000000Y-32500000D02*
G75*
G02X32500000Y-30000000I2500000J0D01*
G01*
X30000000Y-92500000D02*
X30000000Y-32500000D01*
X166000000Y-114000000D02*
X87500000Y-114000000D01*
X168500000Y-32500000D02*
X168500000Y-111500000D01*
X32500000Y-30000000D02*
X166000000Y-30000000D01*
X121016000Y-88181000D02*
X121016000Y-89581000D01*
X115916000Y-88181000D02*
X115916000Y-84031000D01*
X121066000Y-88181000D02*
X121066000Y-84031000D01*
X115916000Y-88181000D02*
X116061000Y-88181000D01*
X115916000Y-84031000D02*
X116061000Y-84031000D01*
X121066000Y-84031000D02*
X120921000Y-84031000D01*
X121066000Y-88181000D02*
X121016000Y-88181000D01*
D11*
X142804000Y-64387000D02*
X142804000Y-62927000D01*
X139644000Y-64387000D02*
X139644000Y-62227000D01*
X139644000Y-64387000D02*
X140574000Y-64387000D01*
X142804000Y-64387000D02*
X141874000Y-64387000D01*
X131755000Y-64387000D02*
X130825000Y-64387000D01*
X128595000Y-64387000D02*
X129525000Y-64387000D01*
X128595000Y-64387000D02*
X128595000Y-62227000D01*
X131755000Y-64387000D02*
X131755000Y-62927000D01*
X141824000Y-59953000D02*
X140624000Y-59953000D01*
X140624000Y-61713000D02*
X141824000Y-61713000D01*
X129575000Y-61713000D02*
X130775000Y-61713000D01*
X130775000Y-59953000D02*
X129575000Y-59953000D01*
X164394000Y-64387000D02*
X163464000Y-64387000D01*
X161234000Y-64387000D02*
X162164000Y-64387000D01*
X161234000Y-64387000D02*
X161234000Y-62227000D01*
X164394000Y-64387000D02*
X164394000Y-62927000D01*
X153599000Y-64260000D02*
X153599000Y-62800000D01*
X150439000Y-64260000D02*
X150439000Y-62100000D01*
X150439000Y-64260000D02*
X151369000Y-64260000D01*
X153599000Y-64260000D02*
X152669000Y-64260000D01*
X162214000Y-61713000D02*
X163414000Y-61713000D01*
X163414000Y-59953000D02*
X162214000Y-59953000D01*
X152619000Y-59826000D02*
X151419000Y-59826000D01*
X151419000Y-61586000D02*
X152619000Y-61586000D01*
X164473000Y-80452500D02*
X163543000Y-80452500D01*
X161313000Y-80452500D02*
X162243000Y-80452500D01*
X161313000Y-80452500D02*
X161313000Y-78292500D01*
X164473000Y-80452500D02*
X164473000Y-78992500D01*
X142629000Y-80452500D02*
X142629000Y-78992500D01*
X139469000Y-80452500D02*
X139469000Y-78292500D01*
X139469000Y-80452500D02*
X140399000Y-80452500D01*
X142629000Y-80452500D02*
X141699000Y-80452500D01*
X153551000Y-80452500D02*
X153551000Y-78992500D01*
X150391000Y-80452500D02*
X150391000Y-78292500D01*
X150391000Y-80452500D02*
X151321000Y-80452500D01*
X153551000Y-80452500D02*
X152621000Y-80452500D01*
X131707000Y-80452500D02*
X130777000Y-80452500D01*
X128547000Y-80452500D02*
X129477000Y-80452500D01*
X128547000Y-80452500D02*
X128547000Y-78292500D01*
X131707000Y-80452500D02*
X131707000Y-78992500D01*
X162293000Y-83366500D02*
X163493000Y-83366500D01*
X163493000Y-81606500D02*
X162293000Y-81606500D01*
X141649000Y-81606500D02*
X140449000Y-81606500D01*
X140449000Y-83366500D02*
X141649000Y-83366500D01*
X151371000Y-83366500D02*
X152571000Y-83366500D01*
X152571000Y-81606500D02*
X151371000Y-81606500D01*
X130727000Y-81606500D02*
X129527000Y-81606500D01*
X129527000Y-83366500D02*
X130727000Y-83366500D01*
X79950000Y-37024000D02*
X81220000Y-37024000D01*
X79950000Y-38354000D02*
X79950000Y-37024000D01*
X82550000Y-39624000D02*
X79950000Y-39624000D01*
X82550000Y-37024000D02*
X82550000Y-39624000D01*
X85150000Y-37024000D02*
X82550000Y-37024000D01*
X85150000Y-87944000D02*
X85150000Y-37024000D01*
X79950000Y-87944000D02*
X85150000Y-87944000D01*
X79950000Y-39624000D02*
X79950000Y-87944000D01*
X94733000Y-80356000D02*
X94733000Y-79156000D01*
X92973000Y-79156000D02*
X92973000Y-80356000D01*
X96529000Y-79156000D02*
X96529000Y-80356000D01*
X98289000Y-80356000D02*
X98289000Y-79156000D01*
X102353000Y-80356000D02*
X102353000Y-79156000D01*
X100593000Y-79156000D02*
X100593000Y-80356000D01*
X104149000Y-79156000D02*
X104149000Y-80356000D01*
X105909000Y-80356000D02*
X105909000Y-79156000D01*
X109973000Y-80356000D02*
X109973000Y-79156000D01*
X108213000Y-79156000D02*
X108213000Y-80356000D01*
X111769000Y-79156000D02*
X111769000Y-80356000D01*
X113529000Y-80356000D02*
X113529000Y-79156000D01*
X117593000Y-80356000D02*
X117593000Y-79156000D01*
X115833000Y-79156000D02*
X115833000Y-80356000D01*
X121149000Y-80356000D02*
X121149000Y-79156000D01*
X119389000Y-79156000D02*
X119389000Y-80356000D01*
D10*
X98206000Y-88181000D02*
X98156000Y-88181000D01*
X98206000Y-84031000D02*
X98061000Y-84031000D01*
X93056000Y-84031000D02*
X93201000Y-84031000D01*
X93056000Y-88181000D02*
X93201000Y-88181000D01*
X98206000Y-88181000D02*
X98206000Y-84031000D01*
X93056000Y-88181000D02*
X93056000Y-84031000D01*
X98156000Y-88181000D02*
X98156000Y-89581000D01*
X105776000Y-88181000D02*
X105776000Y-89581000D01*
X100676000Y-88181000D02*
X100676000Y-84031000D01*
X105826000Y-88181000D02*
X105826000Y-84031000D01*
X100676000Y-88181000D02*
X100821000Y-88181000D01*
X100676000Y-84031000D02*
X100821000Y-84031000D01*
X105826000Y-84031000D02*
X105681000Y-84031000D01*
X105826000Y-88181000D02*
X105776000Y-88181000D01*
X113446000Y-88181000D02*
X113396000Y-88181000D01*
X113446000Y-84031000D02*
X113301000Y-84031000D01*
X108296000Y-84031000D02*
X108441000Y-84031000D01*
X108296000Y-88181000D02*
X108441000Y-88181000D01*
X113446000Y-88181000D02*
X113446000Y-84031000D01*
X108296000Y-88181000D02*
X108296000Y-84031000D01*
X113396000Y-88181000D02*
X113396000Y-89581000D01*
D11*
X160891000Y-97964500D02*
X164991000Y-97964500D01*
X164991000Y-97964500D02*
X164991000Y-95964500D01*
X164991000Y-95964500D02*
X160891000Y-95964500D01*
X160891000Y-95964500D02*
X160891000Y-97964500D01*
X161641000Y-95764500D02*
X161341000Y-95464500D01*
X161341000Y-95464500D02*
X161941000Y-95464500D01*
X161641000Y-95764500D02*
X161941000Y-95464500D01*
X150719000Y-95764500D02*
X151019000Y-95464500D01*
X150419000Y-95464500D02*
X151019000Y-95464500D01*
X150719000Y-95764500D02*
X150419000Y-95464500D01*
X149969000Y-95964500D02*
X149969000Y-97964500D01*
X154069000Y-95964500D02*
X149969000Y-95964500D01*
X154069000Y-97964500D02*
X154069000Y-95964500D01*
X149969000Y-97964500D02*
X154069000Y-97964500D01*
X139797000Y-95764500D02*
X140097000Y-95464500D01*
X139497000Y-95464500D02*
X140097000Y-95464500D01*
X139797000Y-95764500D02*
X139497000Y-95464500D01*
X139047000Y-95964500D02*
X139047000Y-97964500D01*
X143147000Y-95964500D02*
X139047000Y-95964500D01*
X143147000Y-97964500D02*
X143147000Y-95964500D01*
X139047000Y-97964500D02*
X143147000Y-97964500D01*
X128125000Y-97837500D02*
X132225000Y-97837500D01*
X132225000Y-97837500D02*
X132225000Y-95837500D01*
X132225000Y-95837500D02*
X128125000Y-95837500D01*
X128125000Y-95837500D02*
X128125000Y-97837500D01*
X128875000Y-95637500D02*
X128575000Y-95337500D01*
X128575000Y-95337500D02*
X129175000Y-95337500D01*
X128875000Y-95637500D02*
X129175000Y-95337500D01*
X94631000Y-90205000D02*
X94631000Y-94105000D01*
X96631000Y-90205000D02*
X96631000Y-94105000D01*
X94631000Y-90205000D02*
X96631000Y-90205000D01*
X98441000Y-90207000D02*
X100441000Y-90207000D01*
X100441000Y-90207000D02*
X100441000Y-94107000D01*
X98441000Y-90207000D02*
X98441000Y-94107000D01*
X102251000Y-90207000D02*
X102251000Y-94107000D01*
X104251000Y-90207000D02*
X104251000Y-94107000D01*
X102251000Y-90207000D02*
X104251000Y-90207000D01*
X106061000Y-90207000D02*
X106061000Y-94107000D01*
X108061000Y-90207000D02*
X108061000Y-94107000D01*
X106061000Y-90207000D02*
X108061000Y-90207000D01*
X109871000Y-90207000D02*
X111871000Y-90207000D01*
X111871000Y-90207000D02*
X111871000Y-94107000D01*
X109871000Y-90207000D02*
X109871000Y-94107000D01*
X113681000Y-90207000D02*
X115681000Y-90207000D01*
X115681000Y-90207000D02*
X115681000Y-94107000D01*
X113681000Y-90207000D02*
X113681000Y-94107000D01*
X117491000Y-90205000D02*
X117491000Y-94105000D01*
X119491000Y-90205000D02*
X119491000Y-94105000D01*
X117491000Y-90205000D02*
X119491000Y-90205000D01*
X121301000Y-90207000D02*
X123301000Y-90207000D01*
X123301000Y-90207000D02*
X123301000Y-94107000D01*
X121301000Y-90207000D02*
X121301000Y-94107000D01*
X92656000Y-91456000D02*
X92656000Y-93456000D01*
X94796000Y-93456000D02*
X94796000Y-91456000D01*
X68183000Y-40967000D02*
X66183000Y-40967000D01*
X66183000Y-43107000D02*
X68183000Y-43107000D01*
X96466000Y-91456000D02*
X96466000Y-93456000D01*
X98606000Y-93456000D02*
X98606000Y-91456000D01*
X100276000Y-91456000D02*
X100276000Y-93456000D01*
X102416000Y-93456000D02*
X102416000Y-91456000D01*
X106226000Y-93456000D02*
X106226000Y-91456000D01*
X104086000Y-91456000D02*
X104086000Y-93456000D01*
X110036000Y-93456000D02*
X110036000Y-91456000D01*
X107896000Y-91456000D02*
X107896000Y-93456000D01*
X113846000Y-93456000D02*
X113846000Y-91456000D01*
X111706000Y-91456000D02*
X111706000Y-93456000D01*
X117656000Y-93456000D02*
X117656000Y-91456000D01*
X115516000Y-91456000D02*
X115516000Y-93456000D01*
X119326000Y-91456000D02*
X119326000Y-93456000D01*
X121466000Y-93456000D02*
X121466000Y-91456000D01*
X165143000Y-75644500D02*
X161243000Y-75644500D01*
X165143000Y-77644500D02*
X161243000Y-77644500D01*
X165143000Y-75644500D02*
X165143000Y-77644500D01*
X138974000Y-67675000D02*
X142874000Y-67675000D01*
X138974000Y-65675000D02*
X142874000Y-65675000D01*
X138974000Y-67675000D02*
X138974000Y-65675000D01*
X127925000Y-67675000D02*
X127925000Y-65675000D01*
X127925000Y-65675000D02*
X131825000Y-65675000D01*
X127925000Y-67675000D02*
X131825000Y-67675000D01*
X160564000Y-67675000D02*
X164464000Y-67675000D01*
X160564000Y-65675000D02*
X164464000Y-65675000D01*
X160564000Y-67675000D02*
X160564000Y-65675000D01*
X149769000Y-67548000D02*
X149769000Y-65548000D01*
X149769000Y-65548000D02*
X153669000Y-65548000D01*
X149769000Y-67548000D02*
X153669000Y-67548000D01*
X143299000Y-75644500D02*
X139399000Y-75644500D01*
X143299000Y-77644500D02*
X139399000Y-77644500D01*
X143299000Y-75644500D02*
X143299000Y-77644500D01*
X154221000Y-75644500D02*
X154221000Y-77644500D01*
X154221000Y-77644500D02*
X150321000Y-77644500D01*
X154221000Y-75644500D02*
X150321000Y-75644500D01*
X132377000Y-75644500D02*
X132377000Y-77644500D01*
X132377000Y-77644500D02*
X128477000Y-77644500D01*
X132377000Y-75644500D02*
X128477000Y-75644500D01*
X156899000Y-63918000D02*
X156899000Y-61918000D01*
X154759000Y-61918000D02*
X154759000Y-63918000D01*
X132915000Y-61992000D02*
X132915000Y-63992000D01*
X135055000Y-63992000D02*
X135055000Y-61992000D01*
X165633000Y-79327500D02*
X165633000Y-81327500D01*
X167773000Y-81327500D02*
X167773000Y-79327500D01*
X145929000Y-81327500D02*
X145929000Y-79327500D01*
X143789000Y-79327500D02*
X143789000Y-81327500D01*
X154711000Y-79280500D02*
X154711000Y-81280500D01*
X156851000Y-81280500D02*
X156851000Y-79280500D01*
X135007000Y-81407500D02*
X135007000Y-79407500D01*
X132867000Y-79407500D02*
X132867000Y-81407500D01*
D10*
X121443380Y-84867904D02*
X122252904Y-84867904D01*
X122348142Y-84915523D01*
X122395761Y-84963142D01*
X122443380Y-85058380D01*
X122443380Y-85248857D01*
X122395761Y-85344095D01*
X122348142Y-85391714D01*
X122252904Y-85439333D01*
X121443380Y-85439333D01*
X122443380Y-86439333D02*
X122443380Y-85867904D01*
X122443380Y-86153619D02*
X121443380Y-86153619D01*
X121586238Y-86058380D01*
X121681476Y-85963142D01*
X121729095Y-85867904D01*
X122443380Y-87391714D02*
X122443380Y-86820285D01*
X122443380Y-87106000D02*
X121443380Y-87106000D01*
X121586238Y-87010761D01*
X121681476Y-86915523D01*
X121729095Y-86820285D01*
X139271619Y-63531761D02*
X139224000Y-63436523D01*
X139128761Y-63341285D01*
X138985904Y-63198428D01*
X138938285Y-63103190D01*
X138938285Y-63007952D01*
X139176380Y-63055571D02*
X139128761Y-62960333D01*
X139033523Y-62865095D01*
X138843047Y-62817476D01*
X138509714Y-62817476D01*
X138319238Y-62865095D01*
X138224000Y-62960333D01*
X138176380Y-63055571D01*
X138176380Y-63246047D01*
X138224000Y-63341285D01*
X138319238Y-63436523D01*
X138509714Y-63484142D01*
X138843047Y-63484142D01*
X139033523Y-63436523D01*
X139128761Y-63341285D01*
X139176380Y-63246047D01*
X139176380Y-63055571D01*
X139176380Y-64436523D02*
X139176380Y-63865095D01*
X139176380Y-64150809D02*
X138176380Y-64150809D01*
X138319238Y-64055571D01*
X138414476Y-63960333D01*
X138462095Y-63865095D01*
X128222619Y-63531761D02*
X128175000Y-63436523D01*
X128079761Y-63341285D01*
X127936904Y-63198428D01*
X127889285Y-63103190D01*
X127889285Y-63007952D01*
X128127380Y-63055571D02*
X128079761Y-62960333D01*
X127984523Y-62865095D01*
X127794047Y-62817476D01*
X127460714Y-62817476D01*
X127270238Y-62865095D01*
X127175000Y-62960333D01*
X127127380Y-63055571D01*
X127127380Y-63246047D01*
X127175000Y-63341285D01*
X127270238Y-63436523D01*
X127460714Y-63484142D01*
X127794047Y-63484142D01*
X127984523Y-63436523D01*
X128079761Y-63341285D01*
X128127380Y-63246047D01*
X128127380Y-63055571D01*
X127222619Y-63865095D02*
X127175000Y-63912714D01*
X127127380Y-64007952D01*
X127127380Y-64246047D01*
X127175000Y-64341285D01*
X127222619Y-64388904D01*
X127317857Y-64436523D01*
X127413095Y-64436523D01*
X127555952Y-64388904D01*
X128127380Y-63817476D01*
X128127380Y-64436523D01*
X141390666Y-59585380D02*
X141724000Y-59109190D01*
X141962095Y-59585380D02*
X141962095Y-58585380D01*
X141581142Y-58585380D01*
X141485904Y-58633000D01*
X141438285Y-58680619D01*
X141390666Y-58775857D01*
X141390666Y-58918714D01*
X141438285Y-59013952D01*
X141485904Y-59061571D01*
X141581142Y-59109190D01*
X141962095Y-59109190D01*
X140438285Y-59585380D02*
X141009714Y-59585380D01*
X140724000Y-59585380D02*
X140724000Y-58585380D01*
X140819238Y-58728238D01*
X140914476Y-58823476D01*
X141009714Y-58871095D01*
X130341666Y-59585380D02*
X130675000Y-59109190D01*
X130913095Y-59585380D02*
X130913095Y-58585380D01*
X130532142Y-58585380D01*
X130436904Y-58633000D01*
X130389285Y-58680619D01*
X130341666Y-58775857D01*
X130341666Y-58918714D01*
X130389285Y-59013952D01*
X130436904Y-59061571D01*
X130532142Y-59109190D01*
X130913095Y-59109190D01*
X129960714Y-58680619D02*
X129913095Y-58633000D01*
X129817857Y-58585380D01*
X129579761Y-58585380D01*
X129484523Y-58633000D01*
X129436904Y-58680619D01*
X129389285Y-58775857D01*
X129389285Y-58871095D01*
X129436904Y-59013952D01*
X130008333Y-59585380D01*
X129389285Y-59585380D01*
X160861619Y-63531761D02*
X160814000Y-63436523D01*
X160718761Y-63341285D01*
X160575904Y-63198428D01*
X160528285Y-63103190D01*
X160528285Y-63007952D01*
X160766380Y-63055571D02*
X160718761Y-62960333D01*
X160623523Y-62865095D01*
X160433047Y-62817476D01*
X160099714Y-62817476D01*
X159909238Y-62865095D01*
X159814000Y-62960333D01*
X159766380Y-63055571D01*
X159766380Y-63246047D01*
X159814000Y-63341285D01*
X159909238Y-63436523D01*
X160099714Y-63484142D01*
X160433047Y-63484142D01*
X160623523Y-63436523D01*
X160718761Y-63341285D01*
X160766380Y-63246047D01*
X160766380Y-63055571D01*
X159766380Y-63817476D02*
X159766380Y-64436523D01*
X160147333Y-64103190D01*
X160147333Y-64246047D01*
X160194952Y-64341285D01*
X160242571Y-64388904D01*
X160337809Y-64436523D01*
X160575904Y-64436523D01*
X160671142Y-64388904D01*
X160718761Y-64341285D01*
X160766380Y-64246047D01*
X160766380Y-63960333D01*
X160718761Y-63865095D01*
X160671142Y-63817476D01*
X150066619Y-63404761D02*
X150019000Y-63309523D01*
X149923761Y-63214285D01*
X149780904Y-63071428D01*
X149733285Y-62976190D01*
X149733285Y-62880952D01*
X149971380Y-62928571D02*
X149923761Y-62833333D01*
X149828523Y-62738095D01*
X149638047Y-62690476D01*
X149304714Y-62690476D01*
X149114238Y-62738095D01*
X149019000Y-62833333D01*
X148971380Y-62928571D01*
X148971380Y-63119047D01*
X149019000Y-63214285D01*
X149114238Y-63309523D01*
X149304714Y-63357142D01*
X149638047Y-63357142D01*
X149828523Y-63309523D01*
X149923761Y-63214285D01*
X149971380Y-63119047D01*
X149971380Y-62928571D01*
X149304714Y-64214285D02*
X149971380Y-64214285D01*
X148923761Y-63976190D02*
X149638047Y-63738095D01*
X149638047Y-64357142D01*
X162980666Y-59585380D02*
X163314000Y-59109190D01*
X163552095Y-59585380D02*
X163552095Y-58585380D01*
X163171142Y-58585380D01*
X163075904Y-58633000D01*
X163028285Y-58680619D01*
X162980666Y-58775857D01*
X162980666Y-58918714D01*
X163028285Y-59013952D01*
X163075904Y-59061571D01*
X163171142Y-59109190D01*
X163552095Y-59109190D01*
X162647333Y-58585380D02*
X162028285Y-58585380D01*
X162361619Y-58966333D01*
X162218761Y-58966333D01*
X162123523Y-59013952D01*
X162075904Y-59061571D01*
X162028285Y-59156809D01*
X162028285Y-59394904D01*
X162075904Y-59490142D01*
X162123523Y-59537761D01*
X162218761Y-59585380D01*
X162504476Y-59585380D01*
X162599714Y-59537761D01*
X162647333Y-59490142D01*
X152185666Y-59458380D02*
X152519000Y-58982190D01*
X152757095Y-59458380D02*
X152757095Y-58458380D01*
X152376142Y-58458380D01*
X152280904Y-58506000D01*
X152233285Y-58553619D01*
X152185666Y-58648857D01*
X152185666Y-58791714D01*
X152233285Y-58886952D01*
X152280904Y-58934571D01*
X152376142Y-58982190D01*
X152757095Y-58982190D01*
X151328523Y-58791714D02*
X151328523Y-59458380D01*
X151566619Y-58410761D02*
X151804714Y-59125047D01*
X151185666Y-59125047D01*
X160940619Y-79597261D02*
X160893000Y-79502023D01*
X160797761Y-79406785D01*
X160654904Y-79263928D01*
X160607285Y-79168690D01*
X160607285Y-79073452D01*
X160845380Y-79121071D02*
X160797761Y-79025833D01*
X160702523Y-78930595D01*
X160512047Y-78882976D01*
X160178714Y-78882976D01*
X159988238Y-78930595D01*
X159893000Y-79025833D01*
X159845380Y-79121071D01*
X159845380Y-79311547D01*
X159893000Y-79406785D01*
X159988238Y-79502023D01*
X160178714Y-79549642D01*
X160512047Y-79549642D01*
X160702523Y-79502023D01*
X160797761Y-79406785D01*
X160845380Y-79311547D01*
X160845380Y-79121071D01*
X159845380Y-80454404D02*
X159845380Y-79978214D01*
X160321571Y-79930595D01*
X160273952Y-79978214D01*
X160226333Y-80073452D01*
X160226333Y-80311547D01*
X160273952Y-80406785D01*
X160321571Y-80454404D01*
X160416809Y-80502023D01*
X160654904Y-80502023D01*
X160750142Y-80454404D01*
X160797761Y-80406785D01*
X160845380Y-80311547D01*
X160845380Y-80073452D01*
X160797761Y-79978214D01*
X160750142Y-79930595D01*
X139096619Y-79597261D02*
X139049000Y-79502023D01*
X138953761Y-79406785D01*
X138810904Y-79263928D01*
X138763285Y-79168690D01*
X138763285Y-79073452D01*
X139001380Y-79121071D02*
X138953761Y-79025833D01*
X138858523Y-78930595D01*
X138668047Y-78882976D01*
X138334714Y-78882976D01*
X138144238Y-78930595D01*
X138049000Y-79025833D01*
X138001380Y-79121071D01*
X138001380Y-79311547D01*
X138049000Y-79406785D01*
X138144238Y-79502023D01*
X138334714Y-79549642D01*
X138668047Y-79549642D01*
X138858523Y-79502023D01*
X138953761Y-79406785D01*
X139001380Y-79311547D01*
X139001380Y-79121071D01*
X138001380Y-80406785D02*
X138001380Y-80216309D01*
X138049000Y-80121071D01*
X138096619Y-80073452D01*
X138239476Y-79978214D01*
X138429952Y-79930595D01*
X138810904Y-79930595D01*
X138906142Y-79978214D01*
X138953761Y-80025833D01*
X139001380Y-80121071D01*
X139001380Y-80311547D01*
X138953761Y-80406785D01*
X138906142Y-80454404D01*
X138810904Y-80502023D01*
X138572809Y-80502023D01*
X138477571Y-80454404D01*
X138429952Y-80406785D01*
X138382333Y-80311547D01*
X138382333Y-80121071D01*
X138429952Y-80025833D01*
X138477571Y-79978214D01*
X138572809Y-79930595D01*
X150018619Y-79597261D02*
X149971000Y-79502023D01*
X149875761Y-79406785D01*
X149732904Y-79263928D01*
X149685285Y-79168690D01*
X149685285Y-79073452D01*
X149923380Y-79121071D02*
X149875761Y-79025833D01*
X149780523Y-78930595D01*
X149590047Y-78882976D01*
X149256714Y-78882976D01*
X149066238Y-78930595D01*
X148971000Y-79025833D01*
X148923380Y-79121071D01*
X148923380Y-79311547D01*
X148971000Y-79406785D01*
X149066238Y-79502023D01*
X149256714Y-79549642D01*
X149590047Y-79549642D01*
X149780523Y-79502023D01*
X149875761Y-79406785D01*
X149923380Y-79311547D01*
X149923380Y-79121071D01*
X148923380Y-79882976D02*
X148923380Y-80549642D01*
X149923380Y-80121071D01*
X128174619Y-79597261D02*
X128127000Y-79502023D01*
X128031761Y-79406785D01*
X127888904Y-79263928D01*
X127841285Y-79168690D01*
X127841285Y-79073452D01*
X128079380Y-79121071D02*
X128031761Y-79025833D01*
X127936523Y-78930595D01*
X127746047Y-78882976D01*
X127412714Y-78882976D01*
X127222238Y-78930595D01*
X127127000Y-79025833D01*
X127079380Y-79121071D01*
X127079380Y-79311547D01*
X127127000Y-79406785D01*
X127222238Y-79502023D01*
X127412714Y-79549642D01*
X127746047Y-79549642D01*
X127936523Y-79502023D01*
X128031761Y-79406785D01*
X128079380Y-79311547D01*
X128079380Y-79121071D01*
X127507952Y-80121071D02*
X127460333Y-80025833D01*
X127412714Y-79978214D01*
X127317476Y-79930595D01*
X127269857Y-79930595D01*
X127174619Y-79978214D01*
X127127000Y-80025833D01*
X127079380Y-80121071D01*
X127079380Y-80311547D01*
X127127000Y-80406785D01*
X127174619Y-80454404D01*
X127269857Y-80502023D01*
X127317476Y-80502023D01*
X127412714Y-80454404D01*
X127460333Y-80406785D01*
X127507952Y-80311547D01*
X127507952Y-80121071D01*
X127555571Y-80025833D01*
X127603190Y-79978214D01*
X127698428Y-79930595D01*
X127888904Y-79930595D01*
X127984142Y-79978214D01*
X128031761Y-80025833D01*
X128079380Y-80121071D01*
X128079380Y-80311547D01*
X128031761Y-80406785D01*
X127984142Y-80454404D01*
X127888904Y-80502023D01*
X127698428Y-80502023D01*
X127603190Y-80454404D01*
X127555571Y-80406785D01*
X127507952Y-80311547D01*
X163059666Y-84716880D02*
X163393000Y-84240690D01*
X163631095Y-84716880D02*
X163631095Y-83716880D01*
X163250142Y-83716880D01*
X163154904Y-83764500D01*
X163107285Y-83812119D01*
X163059666Y-83907357D01*
X163059666Y-84050214D01*
X163107285Y-84145452D01*
X163154904Y-84193071D01*
X163250142Y-84240690D01*
X163631095Y-84240690D01*
X162726333Y-83716880D02*
X162059666Y-83716880D01*
X162488238Y-84716880D01*
X141215666Y-84716880D02*
X141549000Y-84240690D01*
X141787095Y-84716880D02*
X141787095Y-83716880D01*
X141406142Y-83716880D01*
X141310904Y-83764500D01*
X141263285Y-83812119D01*
X141215666Y-83907357D01*
X141215666Y-84050214D01*
X141263285Y-84145452D01*
X141310904Y-84193071D01*
X141406142Y-84240690D01*
X141787095Y-84240690D01*
X140644238Y-84145452D02*
X140739476Y-84097833D01*
X140787095Y-84050214D01*
X140834714Y-83954976D01*
X140834714Y-83907357D01*
X140787095Y-83812119D01*
X140739476Y-83764500D01*
X140644238Y-83716880D01*
X140453761Y-83716880D01*
X140358523Y-83764500D01*
X140310904Y-83812119D01*
X140263285Y-83907357D01*
X140263285Y-83954976D01*
X140310904Y-84050214D01*
X140358523Y-84097833D01*
X140453761Y-84145452D01*
X140644238Y-84145452D01*
X140739476Y-84193071D01*
X140787095Y-84240690D01*
X140834714Y-84335928D01*
X140834714Y-84526404D01*
X140787095Y-84621642D01*
X140739476Y-84669261D01*
X140644238Y-84716880D01*
X140453761Y-84716880D01*
X140358523Y-84669261D01*
X140310904Y-84621642D01*
X140263285Y-84526404D01*
X140263285Y-84335928D01*
X140310904Y-84240690D01*
X140358523Y-84193071D01*
X140453761Y-84145452D01*
X152137666Y-84716880D02*
X152471000Y-84240690D01*
X152709095Y-84716880D02*
X152709095Y-83716880D01*
X152328142Y-83716880D01*
X152232904Y-83764500D01*
X152185285Y-83812119D01*
X152137666Y-83907357D01*
X152137666Y-84050214D01*
X152185285Y-84145452D01*
X152232904Y-84193071D01*
X152328142Y-84240690D01*
X152709095Y-84240690D01*
X151661476Y-84716880D02*
X151471000Y-84716880D01*
X151375761Y-84669261D01*
X151328142Y-84621642D01*
X151232904Y-84478785D01*
X151185285Y-84288309D01*
X151185285Y-83907357D01*
X151232904Y-83812119D01*
X151280523Y-83764500D01*
X151375761Y-83716880D01*
X151566238Y-83716880D01*
X151661476Y-83764500D01*
X151709095Y-83812119D01*
X151756714Y-83907357D01*
X151756714Y-84145452D01*
X151709095Y-84240690D01*
X151661476Y-84288309D01*
X151566238Y-84335928D01*
X151375761Y-84335928D01*
X151280523Y-84288309D01*
X151232904Y-84240690D01*
X151185285Y-84145452D01*
X130769857Y-84716880D02*
X131103190Y-84240690D01*
X131341285Y-84716880D02*
X131341285Y-83716880D01*
X130960333Y-83716880D01*
X130865095Y-83764500D01*
X130817476Y-83812119D01*
X130769857Y-83907357D01*
X130769857Y-84050214D01*
X130817476Y-84145452D01*
X130865095Y-84193071D01*
X130960333Y-84240690D01*
X131341285Y-84240690D01*
X129817476Y-84716880D02*
X130388904Y-84716880D01*
X130103190Y-84716880D02*
X130103190Y-83716880D01*
X130198428Y-83859738D01*
X130293666Y-83954976D01*
X130388904Y-84002595D01*
X129198428Y-83716880D02*
X129103190Y-83716880D01*
X129007952Y-83764500D01*
X128960333Y-83812119D01*
X128912714Y-83907357D01*
X128865095Y-84097833D01*
X128865095Y-84335928D01*
X128912714Y-84526404D01*
X128960333Y-84621642D01*
X129007952Y-84669261D01*
X129103190Y-84716880D01*
X129198428Y-84716880D01*
X129293666Y-84669261D01*
X129341285Y-84621642D01*
X129388904Y-84526404D01*
X129436523Y-84335928D01*
X129436523Y-84097833D01*
X129388904Y-83907357D01*
X129341285Y-83812119D01*
X129293666Y-83764500D01*
X129198428Y-83716880D01*
X82883333Y-35476380D02*
X82883333Y-36190666D01*
X82930952Y-36333523D01*
X83026190Y-36428761D01*
X83169047Y-36476380D01*
X83264285Y-36476380D01*
X81883333Y-36476380D02*
X82454761Y-36476380D01*
X82169047Y-36476380D02*
X82169047Y-35476380D01*
X82264285Y-35619238D01*
X82359523Y-35714476D01*
X82454761Y-35762095D01*
X96005380Y-79113142D02*
X95529190Y-78779809D01*
X96005380Y-78541714D02*
X95005380Y-78541714D01*
X95005380Y-78922666D01*
X95053000Y-79017904D01*
X95100619Y-79065523D01*
X95195857Y-79113142D01*
X95338714Y-79113142D01*
X95433952Y-79065523D01*
X95481571Y-79017904D01*
X95529190Y-78922666D01*
X95529190Y-78541714D01*
X96005380Y-80065523D02*
X96005380Y-79494095D01*
X96005380Y-79779809D02*
X95005380Y-79779809D01*
X95148238Y-79684571D01*
X95243476Y-79589333D01*
X95291095Y-79494095D01*
X95005380Y-80970285D02*
X95005380Y-80494095D01*
X95481571Y-80446476D01*
X95433952Y-80494095D01*
X95386333Y-80589333D01*
X95386333Y-80827428D01*
X95433952Y-80922666D01*
X95481571Y-80970285D01*
X95576809Y-81017904D01*
X95814904Y-81017904D01*
X95910142Y-80970285D01*
X95957761Y-80922666D01*
X96005380Y-80827428D01*
X96005380Y-80589333D01*
X95957761Y-80494095D01*
X95910142Y-80446476D01*
X99561380Y-79113142D02*
X99085190Y-78779809D01*
X99561380Y-78541714D02*
X98561380Y-78541714D01*
X98561380Y-78922666D01*
X98609000Y-79017904D01*
X98656619Y-79065523D01*
X98751857Y-79113142D01*
X98894714Y-79113142D01*
X98989952Y-79065523D01*
X99037571Y-79017904D01*
X99085190Y-78922666D01*
X99085190Y-78541714D01*
X99561380Y-80065523D02*
X99561380Y-79494095D01*
X99561380Y-79779809D02*
X98561380Y-79779809D01*
X98704238Y-79684571D01*
X98799476Y-79589333D01*
X98847095Y-79494095D01*
X98561380Y-80922666D02*
X98561380Y-80732190D01*
X98609000Y-80636952D01*
X98656619Y-80589333D01*
X98799476Y-80494095D01*
X98989952Y-80446476D01*
X99370904Y-80446476D01*
X99466142Y-80494095D01*
X99513761Y-80541714D01*
X99561380Y-80636952D01*
X99561380Y-80827428D01*
X99513761Y-80922666D01*
X99466142Y-80970285D01*
X99370904Y-81017904D01*
X99132809Y-81017904D01*
X99037571Y-80970285D01*
X98989952Y-80922666D01*
X98942333Y-80827428D01*
X98942333Y-80636952D01*
X98989952Y-80541714D01*
X99037571Y-80494095D01*
X99132809Y-80446476D01*
X103625380Y-79113142D02*
X103149190Y-78779809D01*
X103625380Y-78541714D02*
X102625380Y-78541714D01*
X102625380Y-78922666D01*
X102673000Y-79017904D01*
X102720619Y-79065523D01*
X102815857Y-79113142D01*
X102958714Y-79113142D01*
X103053952Y-79065523D01*
X103101571Y-79017904D01*
X103149190Y-78922666D01*
X103149190Y-78541714D01*
X103625380Y-80065523D02*
X103625380Y-79494095D01*
X103625380Y-79779809D02*
X102625380Y-79779809D01*
X102768238Y-79684571D01*
X102863476Y-79589333D01*
X102911095Y-79494095D01*
X102625380Y-80398857D02*
X102625380Y-81065523D01*
X103625380Y-80636952D01*
X107181380Y-79113142D02*
X106705190Y-78779809D01*
X107181380Y-78541714D02*
X106181380Y-78541714D01*
X106181380Y-78922666D01*
X106229000Y-79017904D01*
X106276619Y-79065523D01*
X106371857Y-79113142D01*
X106514714Y-79113142D01*
X106609952Y-79065523D01*
X106657571Y-79017904D01*
X106705190Y-78922666D01*
X106705190Y-78541714D01*
X107181380Y-80065523D02*
X107181380Y-79494095D01*
X107181380Y-79779809D02*
X106181380Y-79779809D01*
X106324238Y-79684571D01*
X106419476Y-79589333D01*
X106467095Y-79494095D01*
X106609952Y-80636952D02*
X106562333Y-80541714D01*
X106514714Y-80494095D01*
X106419476Y-80446476D01*
X106371857Y-80446476D01*
X106276619Y-80494095D01*
X106229000Y-80541714D01*
X106181380Y-80636952D01*
X106181380Y-80827428D01*
X106229000Y-80922666D01*
X106276619Y-80970285D01*
X106371857Y-81017904D01*
X106419476Y-81017904D01*
X106514714Y-80970285D01*
X106562333Y-80922666D01*
X106609952Y-80827428D01*
X106609952Y-80636952D01*
X106657571Y-80541714D01*
X106705190Y-80494095D01*
X106800428Y-80446476D01*
X106990904Y-80446476D01*
X107086142Y-80494095D01*
X107133761Y-80541714D01*
X107181380Y-80636952D01*
X107181380Y-80827428D01*
X107133761Y-80922666D01*
X107086142Y-80970285D01*
X106990904Y-81017904D01*
X106800428Y-81017904D01*
X106705190Y-80970285D01*
X106657571Y-80922666D01*
X106609952Y-80827428D01*
X111245380Y-79113142D02*
X110769190Y-78779809D01*
X111245380Y-78541714D02*
X110245380Y-78541714D01*
X110245380Y-78922666D01*
X110293000Y-79017904D01*
X110340619Y-79065523D01*
X110435857Y-79113142D01*
X110578714Y-79113142D01*
X110673952Y-79065523D01*
X110721571Y-79017904D01*
X110769190Y-78922666D01*
X110769190Y-78541714D01*
X111245380Y-80065523D02*
X111245380Y-79494095D01*
X111245380Y-79779809D02*
X110245380Y-79779809D01*
X110388238Y-79684571D01*
X110483476Y-79589333D01*
X110531095Y-79494095D01*
X111245380Y-80541714D02*
X111245380Y-80732190D01*
X111197761Y-80827428D01*
X111150142Y-80875047D01*
X111007285Y-80970285D01*
X110816809Y-81017904D01*
X110435857Y-81017904D01*
X110340619Y-80970285D01*
X110293000Y-80922666D01*
X110245380Y-80827428D01*
X110245380Y-80636952D01*
X110293000Y-80541714D01*
X110340619Y-80494095D01*
X110435857Y-80446476D01*
X110673952Y-80446476D01*
X110769190Y-80494095D01*
X110816809Y-80541714D01*
X110864428Y-80636952D01*
X110864428Y-80827428D01*
X110816809Y-80922666D01*
X110769190Y-80970285D01*
X110673952Y-81017904D01*
X114801380Y-79113142D02*
X114325190Y-78779809D01*
X114801380Y-78541714D02*
X113801380Y-78541714D01*
X113801380Y-78922666D01*
X113849000Y-79017904D01*
X113896619Y-79065523D01*
X113991857Y-79113142D01*
X114134714Y-79113142D01*
X114229952Y-79065523D01*
X114277571Y-79017904D01*
X114325190Y-78922666D01*
X114325190Y-78541714D01*
X113896619Y-79494095D02*
X113849000Y-79541714D01*
X113801380Y-79636952D01*
X113801380Y-79875047D01*
X113849000Y-79970285D01*
X113896619Y-80017904D01*
X113991857Y-80065523D01*
X114087095Y-80065523D01*
X114229952Y-80017904D01*
X114801380Y-79446476D01*
X114801380Y-80065523D01*
X113801380Y-80684571D02*
X113801380Y-80779809D01*
X113849000Y-80875047D01*
X113896619Y-80922666D01*
X113991857Y-80970285D01*
X114182333Y-81017904D01*
X114420428Y-81017904D01*
X114610904Y-80970285D01*
X114706142Y-80922666D01*
X114753761Y-80875047D01*
X114801380Y-80779809D01*
X114801380Y-80684571D01*
X114753761Y-80589333D01*
X114706142Y-80541714D01*
X114610904Y-80494095D01*
X114420428Y-80446476D01*
X114182333Y-80446476D01*
X113991857Y-80494095D01*
X113896619Y-80541714D01*
X113849000Y-80589333D01*
X113801380Y-80684571D01*
X118865380Y-79113142D02*
X118389190Y-78779809D01*
X118865380Y-78541714D02*
X117865380Y-78541714D01*
X117865380Y-78922666D01*
X117913000Y-79017904D01*
X117960619Y-79065523D01*
X118055857Y-79113142D01*
X118198714Y-79113142D01*
X118293952Y-79065523D01*
X118341571Y-79017904D01*
X118389190Y-78922666D01*
X118389190Y-78541714D01*
X117960619Y-79494095D02*
X117913000Y-79541714D01*
X117865380Y-79636952D01*
X117865380Y-79875047D01*
X117913000Y-79970285D01*
X117960619Y-80017904D01*
X118055857Y-80065523D01*
X118151095Y-80065523D01*
X118293952Y-80017904D01*
X118865380Y-79446476D01*
X118865380Y-80065523D01*
X118865380Y-81017904D02*
X118865380Y-80446476D01*
X118865380Y-80732190D02*
X117865380Y-80732190D01*
X118008238Y-80636952D01*
X118103476Y-80541714D01*
X118151095Y-80446476D01*
X122421380Y-79113142D02*
X121945190Y-78779809D01*
X122421380Y-78541714D02*
X121421380Y-78541714D01*
X121421380Y-78922666D01*
X121469000Y-79017904D01*
X121516619Y-79065523D01*
X121611857Y-79113142D01*
X121754714Y-79113142D01*
X121849952Y-79065523D01*
X121897571Y-79017904D01*
X121945190Y-78922666D01*
X121945190Y-78541714D01*
X121516619Y-79494095D02*
X121469000Y-79541714D01*
X121421380Y-79636952D01*
X121421380Y-79875047D01*
X121469000Y-79970285D01*
X121516619Y-80017904D01*
X121611857Y-80065523D01*
X121707095Y-80065523D01*
X121849952Y-80017904D01*
X122421380Y-79446476D01*
X122421380Y-80065523D01*
X121516619Y-80446476D02*
X121469000Y-80494095D01*
X121421380Y-80589333D01*
X121421380Y-80827428D01*
X121469000Y-80922666D01*
X121516619Y-80970285D01*
X121611857Y-81017904D01*
X121707095Y-81017904D01*
X121849952Y-80970285D01*
X122421380Y-80398857D01*
X122421380Y-81017904D01*
X98583380Y-85344095D02*
X99392904Y-85344095D01*
X99488142Y-85391714D01*
X99535761Y-85439333D01*
X99583380Y-85534571D01*
X99583380Y-85725047D01*
X99535761Y-85820285D01*
X99488142Y-85867904D01*
X99392904Y-85915523D01*
X98583380Y-85915523D01*
X98678619Y-86344095D02*
X98631000Y-86391714D01*
X98583380Y-86486952D01*
X98583380Y-86725047D01*
X98631000Y-86820285D01*
X98678619Y-86867904D01*
X98773857Y-86915523D01*
X98869095Y-86915523D01*
X99011952Y-86867904D01*
X99583380Y-86296476D01*
X99583380Y-86915523D01*
X106203380Y-85344095D02*
X107012904Y-85344095D01*
X107108142Y-85391714D01*
X107155761Y-85439333D01*
X107203380Y-85534571D01*
X107203380Y-85725047D01*
X107155761Y-85820285D01*
X107108142Y-85867904D01*
X107012904Y-85915523D01*
X106203380Y-85915523D01*
X106203380Y-86296476D02*
X106203380Y-86915523D01*
X106584333Y-86582190D01*
X106584333Y-86725047D01*
X106631952Y-86820285D01*
X106679571Y-86867904D01*
X106774809Y-86915523D01*
X107012904Y-86915523D01*
X107108142Y-86867904D01*
X107155761Y-86820285D01*
X107203380Y-86725047D01*
X107203380Y-86439333D01*
X107155761Y-86344095D01*
X107108142Y-86296476D01*
X113823380Y-85344095D02*
X114632904Y-85344095D01*
X114728142Y-85391714D01*
X114775761Y-85439333D01*
X114823380Y-85534571D01*
X114823380Y-85725047D01*
X114775761Y-85820285D01*
X114728142Y-85867904D01*
X114632904Y-85915523D01*
X113823380Y-85915523D01*
X114156714Y-86820285D02*
X114823380Y-86820285D01*
X113775761Y-86582190D02*
X114490047Y-86344095D01*
X114490047Y-86963142D01*
X163774333Y-98216880D02*
X163774333Y-98931166D01*
X163821952Y-99074023D01*
X163917190Y-99169261D01*
X164060047Y-99216880D01*
X164155285Y-99216880D01*
X163298142Y-99216880D02*
X163298142Y-98216880D01*
X162917190Y-98216880D01*
X162821952Y-98264500D01*
X162774333Y-98312119D01*
X162726714Y-98407357D01*
X162726714Y-98550214D01*
X162774333Y-98645452D01*
X162821952Y-98693071D01*
X162917190Y-98740690D01*
X163298142Y-98740690D01*
X161774333Y-99216880D02*
X162345761Y-99216880D01*
X162060047Y-99216880D02*
X162060047Y-98216880D01*
X162155285Y-98359738D01*
X162250523Y-98454976D01*
X162345761Y-98502595D01*
X152852333Y-98216880D02*
X152852333Y-98931166D01*
X152899952Y-99074023D01*
X152995190Y-99169261D01*
X153138047Y-99216880D01*
X153233285Y-99216880D01*
X152376142Y-99216880D02*
X152376142Y-98216880D01*
X151995190Y-98216880D01*
X151899952Y-98264500D01*
X151852333Y-98312119D01*
X151804714Y-98407357D01*
X151804714Y-98550214D01*
X151852333Y-98645452D01*
X151899952Y-98693071D01*
X151995190Y-98740690D01*
X152376142Y-98740690D01*
X151423761Y-98312119D02*
X151376142Y-98264500D01*
X151280904Y-98216880D01*
X151042809Y-98216880D01*
X150947571Y-98264500D01*
X150899952Y-98312119D01*
X150852333Y-98407357D01*
X150852333Y-98502595D01*
X150899952Y-98645452D01*
X151471380Y-99216880D01*
X150852333Y-99216880D01*
X141930333Y-98216880D02*
X141930333Y-98931166D01*
X141977952Y-99074023D01*
X142073190Y-99169261D01*
X142216047Y-99216880D01*
X142311285Y-99216880D01*
X141454142Y-99216880D02*
X141454142Y-98216880D01*
X141073190Y-98216880D01*
X140977952Y-98264500D01*
X140930333Y-98312119D01*
X140882714Y-98407357D01*
X140882714Y-98550214D01*
X140930333Y-98645452D01*
X140977952Y-98693071D01*
X141073190Y-98740690D01*
X141454142Y-98740690D01*
X140549380Y-98216880D02*
X139930333Y-98216880D01*
X140263666Y-98597833D01*
X140120809Y-98597833D01*
X140025571Y-98645452D01*
X139977952Y-98693071D01*
X139930333Y-98788309D01*
X139930333Y-99026404D01*
X139977952Y-99121642D01*
X140025571Y-99169261D01*
X140120809Y-99216880D01*
X140406523Y-99216880D01*
X140501761Y-99169261D01*
X140549380Y-99121642D01*
X131008333Y-98089880D02*
X131008333Y-98804166D01*
X131055952Y-98947023D01*
X131151190Y-99042261D01*
X131294047Y-99089880D01*
X131389285Y-99089880D01*
X130532142Y-99089880D02*
X130532142Y-98089880D01*
X130151190Y-98089880D01*
X130055952Y-98137500D01*
X130008333Y-98185119D01*
X129960714Y-98280357D01*
X129960714Y-98423214D01*
X130008333Y-98518452D01*
X130055952Y-98566071D01*
X130151190Y-98613690D01*
X130532142Y-98613690D01*
X129103571Y-98423214D02*
X129103571Y-99089880D01*
X129341666Y-98042261D02*
X129579761Y-98756547D01*
X128960714Y-98756547D01*
X95861380Y-95114214D02*
X94861380Y-95114214D01*
X94861380Y-95352309D01*
X94909000Y-95495166D01*
X95004238Y-95590404D01*
X95099476Y-95638023D01*
X95289952Y-95685642D01*
X95432809Y-95685642D01*
X95623285Y-95638023D01*
X95718523Y-95590404D01*
X95813761Y-95495166D01*
X95861380Y-95352309D01*
X95861380Y-95114214D01*
X94956619Y-96066595D02*
X94909000Y-96114214D01*
X94861380Y-96209452D01*
X94861380Y-96447547D01*
X94909000Y-96542785D01*
X94956619Y-96590404D01*
X95051857Y-96638023D01*
X95147095Y-96638023D01*
X95289952Y-96590404D01*
X95861380Y-96018976D01*
X95861380Y-96638023D01*
X94861380Y-97542785D02*
X94861380Y-97066595D01*
X95337571Y-97018976D01*
X95289952Y-97066595D01*
X95242333Y-97161833D01*
X95242333Y-97399928D01*
X95289952Y-97495166D01*
X95337571Y-97542785D01*
X95432809Y-97590404D01*
X95670904Y-97590404D01*
X95766142Y-97542785D01*
X95813761Y-97495166D01*
X95861380Y-97399928D01*
X95861380Y-97161833D01*
X95813761Y-97066595D01*
X95766142Y-97018976D01*
X99671380Y-95116214D02*
X98671380Y-95116214D01*
X98671380Y-95354309D01*
X98719000Y-95497166D01*
X98814238Y-95592404D01*
X98909476Y-95640023D01*
X99099952Y-95687642D01*
X99242809Y-95687642D01*
X99433285Y-95640023D01*
X99528523Y-95592404D01*
X99623761Y-95497166D01*
X99671380Y-95354309D01*
X99671380Y-95116214D01*
X98766619Y-96068595D02*
X98719000Y-96116214D01*
X98671380Y-96211452D01*
X98671380Y-96449547D01*
X98719000Y-96544785D01*
X98766619Y-96592404D01*
X98861857Y-96640023D01*
X98957095Y-96640023D01*
X99099952Y-96592404D01*
X99671380Y-96020976D01*
X99671380Y-96640023D01*
X98671380Y-97497166D02*
X98671380Y-97306690D01*
X98719000Y-97211452D01*
X98766619Y-97163833D01*
X98909476Y-97068595D01*
X99099952Y-97020976D01*
X99480904Y-97020976D01*
X99576142Y-97068595D01*
X99623761Y-97116214D01*
X99671380Y-97211452D01*
X99671380Y-97401928D01*
X99623761Y-97497166D01*
X99576142Y-97544785D01*
X99480904Y-97592404D01*
X99242809Y-97592404D01*
X99147571Y-97544785D01*
X99099952Y-97497166D01*
X99052333Y-97401928D01*
X99052333Y-97211452D01*
X99099952Y-97116214D01*
X99147571Y-97068595D01*
X99242809Y-97020976D01*
X103481380Y-95116214D02*
X102481380Y-95116214D01*
X102481380Y-95354309D01*
X102529000Y-95497166D01*
X102624238Y-95592404D01*
X102719476Y-95640023D01*
X102909952Y-95687642D01*
X103052809Y-95687642D01*
X103243285Y-95640023D01*
X103338523Y-95592404D01*
X103433761Y-95497166D01*
X103481380Y-95354309D01*
X103481380Y-95116214D01*
X102576619Y-96068595D02*
X102529000Y-96116214D01*
X102481380Y-96211452D01*
X102481380Y-96449547D01*
X102529000Y-96544785D01*
X102576619Y-96592404D01*
X102671857Y-96640023D01*
X102767095Y-96640023D01*
X102909952Y-96592404D01*
X103481380Y-96020976D01*
X103481380Y-96640023D01*
X102481380Y-96973357D02*
X102481380Y-97640023D01*
X103481380Y-97211452D01*
X107291380Y-95116214D02*
X106291380Y-95116214D01*
X106291380Y-95354309D01*
X106339000Y-95497166D01*
X106434238Y-95592404D01*
X106529476Y-95640023D01*
X106719952Y-95687642D01*
X106862809Y-95687642D01*
X107053285Y-95640023D01*
X107148523Y-95592404D01*
X107243761Y-95497166D01*
X107291380Y-95354309D01*
X107291380Y-95116214D01*
X106386619Y-96068595D02*
X106339000Y-96116214D01*
X106291380Y-96211452D01*
X106291380Y-96449547D01*
X106339000Y-96544785D01*
X106386619Y-96592404D01*
X106481857Y-96640023D01*
X106577095Y-96640023D01*
X106719952Y-96592404D01*
X107291380Y-96020976D01*
X107291380Y-96640023D01*
X106719952Y-97211452D02*
X106672333Y-97116214D01*
X106624714Y-97068595D01*
X106529476Y-97020976D01*
X106481857Y-97020976D01*
X106386619Y-97068595D01*
X106339000Y-97116214D01*
X106291380Y-97211452D01*
X106291380Y-97401928D01*
X106339000Y-97497166D01*
X106386619Y-97544785D01*
X106481857Y-97592404D01*
X106529476Y-97592404D01*
X106624714Y-97544785D01*
X106672333Y-97497166D01*
X106719952Y-97401928D01*
X106719952Y-97211452D01*
X106767571Y-97116214D01*
X106815190Y-97068595D01*
X106910428Y-97020976D01*
X107100904Y-97020976D01*
X107196142Y-97068595D01*
X107243761Y-97116214D01*
X107291380Y-97211452D01*
X107291380Y-97401928D01*
X107243761Y-97497166D01*
X107196142Y-97544785D01*
X107100904Y-97592404D01*
X106910428Y-97592404D01*
X106815190Y-97544785D01*
X106767571Y-97497166D01*
X106719952Y-97401928D01*
X111101380Y-95116214D02*
X110101380Y-95116214D01*
X110101380Y-95354309D01*
X110149000Y-95497166D01*
X110244238Y-95592404D01*
X110339476Y-95640023D01*
X110529952Y-95687642D01*
X110672809Y-95687642D01*
X110863285Y-95640023D01*
X110958523Y-95592404D01*
X111053761Y-95497166D01*
X111101380Y-95354309D01*
X111101380Y-95116214D01*
X110196619Y-96068595D02*
X110149000Y-96116214D01*
X110101380Y-96211452D01*
X110101380Y-96449547D01*
X110149000Y-96544785D01*
X110196619Y-96592404D01*
X110291857Y-96640023D01*
X110387095Y-96640023D01*
X110529952Y-96592404D01*
X111101380Y-96020976D01*
X111101380Y-96640023D01*
X111101380Y-97116214D02*
X111101380Y-97306690D01*
X111053761Y-97401928D01*
X111006142Y-97449547D01*
X110863285Y-97544785D01*
X110672809Y-97592404D01*
X110291857Y-97592404D01*
X110196619Y-97544785D01*
X110149000Y-97497166D01*
X110101380Y-97401928D01*
X110101380Y-97211452D01*
X110149000Y-97116214D01*
X110196619Y-97068595D01*
X110291857Y-97020976D01*
X110529952Y-97020976D01*
X110625190Y-97068595D01*
X110672809Y-97116214D01*
X110720428Y-97211452D01*
X110720428Y-97401928D01*
X110672809Y-97497166D01*
X110625190Y-97544785D01*
X110529952Y-97592404D01*
X114911380Y-95116214D02*
X113911380Y-95116214D01*
X113911380Y-95354309D01*
X113959000Y-95497166D01*
X114054238Y-95592404D01*
X114149476Y-95640023D01*
X114339952Y-95687642D01*
X114482809Y-95687642D01*
X114673285Y-95640023D01*
X114768523Y-95592404D01*
X114863761Y-95497166D01*
X114911380Y-95354309D01*
X114911380Y-95116214D01*
X113911380Y-96020976D02*
X113911380Y-96640023D01*
X114292333Y-96306690D01*
X114292333Y-96449547D01*
X114339952Y-96544785D01*
X114387571Y-96592404D01*
X114482809Y-96640023D01*
X114720904Y-96640023D01*
X114816142Y-96592404D01*
X114863761Y-96544785D01*
X114911380Y-96449547D01*
X114911380Y-96163833D01*
X114863761Y-96068595D01*
X114816142Y-96020976D01*
X113911380Y-97259071D02*
X113911380Y-97354309D01*
X113959000Y-97449547D01*
X114006619Y-97497166D01*
X114101857Y-97544785D01*
X114292333Y-97592404D01*
X114530428Y-97592404D01*
X114720904Y-97544785D01*
X114816142Y-97497166D01*
X114863761Y-97449547D01*
X114911380Y-97354309D01*
X114911380Y-97259071D01*
X114863761Y-97163833D01*
X114816142Y-97116214D01*
X114720904Y-97068595D01*
X114530428Y-97020976D01*
X114292333Y-97020976D01*
X114101857Y-97068595D01*
X114006619Y-97116214D01*
X113959000Y-97163833D01*
X113911380Y-97259071D01*
X118721380Y-95114214D02*
X117721380Y-95114214D01*
X117721380Y-95352309D01*
X117769000Y-95495166D01*
X117864238Y-95590404D01*
X117959476Y-95638023D01*
X118149952Y-95685642D01*
X118292809Y-95685642D01*
X118483285Y-95638023D01*
X118578523Y-95590404D01*
X118673761Y-95495166D01*
X118721380Y-95352309D01*
X118721380Y-95114214D01*
X117721380Y-96018976D02*
X117721380Y-96638023D01*
X118102333Y-96304690D01*
X118102333Y-96447547D01*
X118149952Y-96542785D01*
X118197571Y-96590404D01*
X118292809Y-96638023D01*
X118530904Y-96638023D01*
X118626142Y-96590404D01*
X118673761Y-96542785D01*
X118721380Y-96447547D01*
X118721380Y-96161833D01*
X118673761Y-96066595D01*
X118626142Y-96018976D01*
X118721380Y-97590404D02*
X118721380Y-97018976D01*
X118721380Y-97304690D02*
X117721380Y-97304690D01*
X117864238Y-97209452D01*
X117959476Y-97114214D01*
X118007095Y-97018976D01*
X122531380Y-95116214D02*
X121531380Y-95116214D01*
X121531380Y-95354309D01*
X121579000Y-95497166D01*
X121674238Y-95592404D01*
X121769476Y-95640023D01*
X121959952Y-95687642D01*
X122102809Y-95687642D01*
X122293285Y-95640023D01*
X122388523Y-95592404D01*
X122483761Y-95497166D01*
X122531380Y-95354309D01*
X122531380Y-95116214D01*
X121531380Y-96020976D02*
X121531380Y-96640023D01*
X121912333Y-96306690D01*
X121912333Y-96449547D01*
X121959952Y-96544785D01*
X122007571Y-96592404D01*
X122102809Y-96640023D01*
X122340904Y-96640023D01*
X122436142Y-96592404D01*
X122483761Y-96544785D01*
X122531380Y-96449547D01*
X122531380Y-96163833D01*
X122483761Y-96068595D01*
X122436142Y-96020976D01*
X121626619Y-97020976D02*
X121579000Y-97068595D01*
X121531380Y-97163833D01*
X121531380Y-97401928D01*
X121579000Y-97497166D01*
X121626619Y-97544785D01*
X121721857Y-97592404D01*
X121817095Y-97592404D01*
X121959952Y-97544785D01*
X122531380Y-96973357D01*
X122531380Y-97592404D01*
X94377380Y-95686642D02*
X93901190Y-95353309D01*
X94377380Y-95115214D02*
X93377380Y-95115214D01*
X93377380Y-95496166D01*
X93425000Y-95591404D01*
X93472619Y-95639023D01*
X93567857Y-95686642D01*
X93710714Y-95686642D01*
X93805952Y-95639023D01*
X93853571Y-95591404D01*
X93901190Y-95496166D01*
X93901190Y-95115214D01*
X93472619Y-96067595D02*
X93425000Y-96115214D01*
X93377380Y-96210452D01*
X93377380Y-96448547D01*
X93425000Y-96543785D01*
X93472619Y-96591404D01*
X93567857Y-96639023D01*
X93663095Y-96639023D01*
X93805952Y-96591404D01*
X94377380Y-96019976D01*
X94377380Y-96639023D01*
X93377380Y-96972357D02*
X93377380Y-97591404D01*
X93758333Y-97258071D01*
X93758333Y-97400928D01*
X93805952Y-97496166D01*
X93853571Y-97543785D01*
X93948809Y-97591404D01*
X94186904Y-97591404D01*
X94282142Y-97543785D01*
X94329761Y-97496166D01*
X94377380Y-97400928D01*
X94377380Y-97115214D01*
X94329761Y-97019976D01*
X94282142Y-96972357D01*
X67825857Y-44339380D02*
X68159190Y-43863190D01*
X68397285Y-44339380D02*
X68397285Y-43339380D01*
X68016333Y-43339380D01*
X67921095Y-43387000D01*
X67873476Y-43434619D01*
X67825857Y-43529857D01*
X67825857Y-43672714D01*
X67873476Y-43767952D01*
X67921095Y-43815571D01*
X68016333Y-43863190D01*
X68397285Y-43863190D01*
X67444904Y-43434619D02*
X67397285Y-43387000D01*
X67302047Y-43339380D01*
X67063952Y-43339380D01*
X66968714Y-43387000D01*
X66921095Y-43434619D01*
X66873476Y-43529857D01*
X66873476Y-43625095D01*
X66921095Y-43767952D01*
X67492523Y-44339380D01*
X66873476Y-44339380D01*
X66302047Y-43767952D02*
X66397285Y-43720333D01*
X66444904Y-43672714D01*
X66492523Y-43577476D01*
X66492523Y-43529857D01*
X66444904Y-43434619D01*
X66397285Y-43387000D01*
X66302047Y-43339380D01*
X66111571Y-43339380D01*
X66016333Y-43387000D01*
X65968714Y-43434619D01*
X65921095Y-43529857D01*
X65921095Y-43577476D01*
X65968714Y-43672714D01*
X66016333Y-43720333D01*
X66111571Y-43767952D01*
X66302047Y-43767952D01*
X66397285Y-43815571D01*
X66444904Y-43863190D01*
X66492523Y-43958428D01*
X66492523Y-44148904D01*
X66444904Y-44244142D01*
X66397285Y-44291761D01*
X66302047Y-44339380D01*
X66111571Y-44339380D01*
X66016333Y-44291761D01*
X65968714Y-44244142D01*
X65921095Y-44148904D01*
X65921095Y-43958428D01*
X65968714Y-43863190D01*
X66016333Y-43815571D01*
X66111571Y-43767952D01*
X98187380Y-95686642D02*
X97711190Y-95353309D01*
X98187380Y-95115214D02*
X97187380Y-95115214D01*
X97187380Y-95496166D01*
X97235000Y-95591404D01*
X97282619Y-95639023D01*
X97377857Y-95686642D01*
X97520714Y-95686642D01*
X97615952Y-95639023D01*
X97663571Y-95591404D01*
X97711190Y-95496166D01*
X97711190Y-95115214D01*
X97187380Y-96019976D02*
X97187380Y-96639023D01*
X97568333Y-96305690D01*
X97568333Y-96448547D01*
X97615952Y-96543785D01*
X97663571Y-96591404D01*
X97758809Y-96639023D01*
X97996904Y-96639023D01*
X98092142Y-96591404D01*
X98139761Y-96543785D01*
X98187380Y-96448547D01*
X98187380Y-96162833D01*
X98139761Y-96067595D01*
X98092142Y-96019976D01*
X97187380Y-97258071D02*
X97187380Y-97353309D01*
X97235000Y-97448547D01*
X97282619Y-97496166D01*
X97377857Y-97543785D01*
X97568333Y-97591404D01*
X97806428Y-97591404D01*
X97996904Y-97543785D01*
X98092142Y-97496166D01*
X98139761Y-97448547D01*
X98187380Y-97353309D01*
X98187380Y-97258071D01*
X98139761Y-97162833D01*
X98092142Y-97115214D01*
X97996904Y-97067595D01*
X97806428Y-97019976D01*
X97568333Y-97019976D01*
X97377857Y-97067595D01*
X97282619Y-97115214D01*
X97235000Y-97162833D01*
X97187380Y-97258071D01*
X101997380Y-95686642D02*
X101521190Y-95353309D01*
X101997380Y-95115214D02*
X100997380Y-95115214D01*
X100997380Y-95496166D01*
X101045000Y-95591404D01*
X101092619Y-95639023D01*
X101187857Y-95686642D01*
X101330714Y-95686642D01*
X101425952Y-95639023D01*
X101473571Y-95591404D01*
X101521190Y-95496166D01*
X101521190Y-95115214D01*
X100997380Y-96019976D02*
X100997380Y-96639023D01*
X101378333Y-96305690D01*
X101378333Y-96448547D01*
X101425952Y-96543785D01*
X101473571Y-96591404D01*
X101568809Y-96639023D01*
X101806904Y-96639023D01*
X101902142Y-96591404D01*
X101949761Y-96543785D01*
X101997380Y-96448547D01*
X101997380Y-96162833D01*
X101949761Y-96067595D01*
X101902142Y-96019976D01*
X101092619Y-97019976D02*
X101045000Y-97067595D01*
X100997380Y-97162833D01*
X100997380Y-97400928D01*
X101045000Y-97496166D01*
X101092619Y-97543785D01*
X101187857Y-97591404D01*
X101283095Y-97591404D01*
X101425952Y-97543785D01*
X101997380Y-96972357D01*
X101997380Y-97591404D01*
X105807380Y-95686642D02*
X105331190Y-95353309D01*
X105807380Y-95115214D02*
X104807380Y-95115214D01*
X104807380Y-95496166D01*
X104855000Y-95591404D01*
X104902619Y-95639023D01*
X104997857Y-95686642D01*
X105140714Y-95686642D01*
X105235952Y-95639023D01*
X105283571Y-95591404D01*
X105331190Y-95496166D01*
X105331190Y-95115214D01*
X104807380Y-96019976D02*
X104807380Y-96639023D01*
X105188333Y-96305690D01*
X105188333Y-96448547D01*
X105235952Y-96543785D01*
X105283571Y-96591404D01*
X105378809Y-96639023D01*
X105616904Y-96639023D01*
X105712142Y-96591404D01*
X105759761Y-96543785D01*
X105807380Y-96448547D01*
X105807380Y-96162833D01*
X105759761Y-96067595D01*
X105712142Y-96019976D01*
X105140714Y-97496166D02*
X105807380Y-97496166D01*
X104759761Y-97258071D02*
X105474047Y-97019976D01*
X105474047Y-97639023D01*
X109617380Y-95686642D02*
X109141190Y-95353309D01*
X109617380Y-95115214D02*
X108617380Y-95115214D01*
X108617380Y-95496166D01*
X108665000Y-95591404D01*
X108712619Y-95639023D01*
X108807857Y-95686642D01*
X108950714Y-95686642D01*
X109045952Y-95639023D01*
X109093571Y-95591404D01*
X109141190Y-95496166D01*
X109141190Y-95115214D01*
X108617380Y-96019976D02*
X108617380Y-96639023D01*
X108998333Y-96305690D01*
X108998333Y-96448547D01*
X109045952Y-96543785D01*
X109093571Y-96591404D01*
X109188809Y-96639023D01*
X109426904Y-96639023D01*
X109522142Y-96591404D01*
X109569761Y-96543785D01*
X109617380Y-96448547D01*
X109617380Y-96162833D01*
X109569761Y-96067595D01*
X109522142Y-96019976D01*
X108617380Y-97496166D02*
X108617380Y-97305690D01*
X108665000Y-97210452D01*
X108712619Y-97162833D01*
X108855476Y-97067595D01*
X109045952Y-97019976D01*
X109426904Y-97019976D01*
X109522142Y-97067595D01*
X109569761Y-97115214D01*
X109617380Y-97210452D01*
X109617380Y-97400928D01*
X109569761Y-97496166D01*
X109522142Y-97543785D01*
X109426904Y-97591404D01*
X109188809Y-97591404D01*
X109093571Y-97543785D01*
X109045952Y-97496166D01*
X108998333Y-97400928D01*
X108998333Y-97210452D01*
X109045952Y-97115214D01*
X109093571Y-97067595D01*
X109188809Y-97019976D01*
X113427380Y-95686642D02*
X112951190Y-95353309D01*
X113427380Y-95115214D02*
X112427380Y-95115214D01*
X112427380Y-95496166D01*
X112475000Y-95591404D01*
X112522619Y-95639023D01*
X112617857Y-95686642D01*
X112760714Y-95686642D01*
X112855952Y-95639023D01*
X112903571Y-95591404D01*
X112951190Y-95496166D01*
X112951190Y-95115214D01*
X112427380Y-96019976D02*
X112427380Y-96639023D01*
X112808333Y-96305690D01*
X112808333Y-96448547D01*
X112855952Y-96543785D01*
X112903571Y-96591404D01*
X112998809Y-96639023D01*
X113236904Y-96639023D01*
X113332142Y-96591404D01*
X113379761Y-96543785D01*
X113427380Y-96448547D01*
X113427380Y-96162833D01*
X113379761Y-96067595D01*
X113332142Y-96019976D01*
X112855952Y-97210452D02*
X112808333Y-97115214D01*
X112760714Y-97067595D01*
X112665476Y-97019976D01*
X112617857Y-97019976D01*
X112522619Y-97067595D01*
X112475000Y-97115214D01*
X112427380Y-97210452D01*
X112427380Y-97400928D01*
X112475000Y-97496166D01*
X112522619Y-97543785D01*
X112617857Y-97591404D01*
X112665476Y-97591404D01*
X112760714Y-97543785D01*
X112808333Y-97496166D01*
X112855952Y-97400928D01*
X112855952Y-97210452D01*
X112903571Y-97115214D01*
X112951190Y-97067595D01*
X113046428Y-97019976D01*
X113236904Y-97019976D01*
X113332142Y-97067595D01*
X113379761Y-97115214D01*
X113427380Y-97210452D01*
X113427380Y-97400928D01*
X113379761Y-97496166D01*
X113332142Y-97543785D01*
X113236904Y-97591404D01*
X113046428Y-97591404D01*
X112951190Y-97543785D01*
X112903571Y-97496166D01*
X112855952Y-97400928D01*
X117237380Y-95686642D02*
X116761190Y-95353309D01*
X117237380Y-95115214D02*
X116237380Y-95115214D01*
X116237380Y-95496166D01*
X116285000Y-95591404D01*
X116332619Y-95639023D01*
X116427857Y-95686642D01*
X116570714Y-95686642D01*
X116665952Y-95639023D01*
X116713571Y-95591404D01*
X116761190Y-95496166D01*
X116761190Y-95115214D01*
X116570714Y-96543785D02*
X117237380Y-96543785D01*
X116189761Y-96305690D02*
X116904047Y-96067595D01*
X116904047Y-96686642D01*
X116237380Y-97258071D02*
X116237380Y-97353309D01*
X116285000Y-97448547D01*
X116332619Y-97496166D01*
X116427857Y-97543785D01*
X116618333Y-97591404D01*
X116856428Y-97591404D01*
X117046904Y-97543785D01*
X117142142Y-97496166D01*
X117189761Y-97448547D01*
X117237380Y-97353309D01*
X117237380Y-97258071D01*
X117189761Y-97162833D01*
X117142142Y-97115214D01*
X117046904Y-97067595D01*
X116856428Y-97019976D01*
X116618333Y-97019976D01*
X116427857Y-97067595D01*
X116332619Y-97115214D01*
X116285000Y-97162833D01*
X116237380Y-97258071D01*
X121047380Y-95686642D02*
X120571190Y-95353309D01*
X121047380Y-95115214D02*
X120047380Y-95115214D01*
X120047380Y-95496166D01*
X120095000Y-95591404D01*
X120142619Y-95639023D01*
X120237857Y-95686642D01*
X120380714Y-95686642D01*
X120475952Y-95639023D01*
X120523571Y-95591404D01*
X120571190Y-95496166D01*
X120571190Y-95115214D01*
X120380714Y-96543785D02*
X121047380Y-96543785D01*
X119999761Y-96305690D02*
X120714047Y-96067595D01*
X120714047Y-96686642D01*
X120142619Y-97019976D02*
X120095000Y-97067595D01*
X120047380Y-97162833D01*
X120047380Y-97400928D01*
X120095000Y-97496166D01*
X120142619Y-97543785D01*
X120237857Y-97591404D01*
X120333095Y-97591404D01*
X120475952Y-97543785D01*
X121047380Y-96972357D01*
X121047380Y-97591404D01*
X163631095Y-75096880D02*
X163631095Y-74096880D01*
X163393000Y-74096880D01*
X163250142Y-74144500D01*
X163154904Y-74239738D01*
X163107285Y-74334976D01*
X163059666Y-74525452D01*
X163059666Y-74668309D01*
X163107285Y-74858785D01*
X163154904Y-74954023D01*
X163250142Y-75049261D01*
X163393000Y-75096880D01*
X163631095Y-75096880D01*
X162107285Y-75096880D02*
X162678714Y-75096880D01*
X162393000Y-75096880D02*
X162393000Y-74096880D01*
X162488238Y-74239738D01*
X162583476Y-74334976D01*
X162678714Y-74382595D01*
X141962095Y-69127380D02*
X141962095Y-68127380D01*
X141724000Y-68127380D01*
X141581142Y-68175000D01*
X141485904Y-68270238D01*
X141438285Y-68365476D01*
X141390666Y-68555952D01*
X141390666Y-68698809D01*
X141438285Y-68889285D01*
X141485904Y-68984523D01*
X141581142Y-69079761D01*
X141724000Y-69127380D01*
X141962095Y-69127380D01*
X141009714Y-68222619D02*
X140962095Y-68175000D01*
X140866857Y-68127380D01*
X140628761Y-68127380D01*
X140533523Y-68175000D01*
X140485904Y-68222619D01*
X140438285Y-68317857D01*
X140438285Y-68413095D01*
X140485904Y-68555952D01*
X141057333Y-69127380D01*
X140438285Y-69127380D01*
X130913095Y-69127380D02*
X130913095Y-68127380D01*
X130675000Y-68127380D01*
X130532142Y-68175000D01*
X130436904Y-68270238D01*
X130389285Y-68365476D01*
X130341666Y-68555952D01*
X130341666Y-68698809D01*
X130389285Y-68889285D01*
X130436904Y-68984523D01*
X130532142Y-69079761D01*
X130675000Y-69127380D01*
X130913095Y-69127380D01*
X130008333Y-68127380D02*
X129389285Y-68127380D01*
X129722619Y-68508333D01*
X129579761Y-68508333D01*
X129484523Y-68555952D01*
X129436904Y-68603571D01*
X129389285Y-68698809D01*
X129389285Y-68936904D01*
X129436904Y-69032142D01*
X129484523Y-69079761D01*
X129579761Y-69127380D01*
X129865476Y-69127380D01*
X129960714Y-69079761D01*
X130008333Y-69032142D01*
X163552095Y-69127380D02*
X163552095Y-68127380D01*
X163314000Y-68127380D01*
X163171142Y-68175000D01*
X163075904Y-68270238D01*
X163028285Y-68365476D01*
X162980666Y-68555952D01*
X162980666Y-68698809D01*
X163028285Y-68889285D01*
X163075904Y-68984523D01*
X163171142Y-69079761D01*
X163314000Y-69127380D01*
X163552095Y-69127380D01*
X162123523Y-68460714D02*
X162123523Y-69127380D01*
X162361619Y-68079761D02*
X162599714Y-68794047D01*
X161980666Y-68794047D01*
X152757095Y-69000380D02*
X152757095Y-68000380D01*
X152519000Y-68000380D01*
X152376142Y-68048000D01*
X152280904Y-68143238D01*
X152233285Y-68238476D01*
X152185666Y-68428952D01*
X152185666Y-68571809D01*
X152233285Y-68762285D01*
X152280904Y-68857523D01*
X152376142Y-68952761D01*
X152519000Y-69000380D01*
X152757095Y-69000380D01*
X151280904Y-68000380D02*
X151757095Y-68000380D01*
X151804714Y-68476571D01*
X151757095Y-68428952D01*
X151661857Y-68381333D01*
X151423761Y-68381333D01*
X151328523Y-68428952D01*
X151280904Y-68476571D01*
X151233285Y-68571809D01*
X151233285Y-68809904D01*
X151280904Y-68905142D01*
X151328523Y-68952761D01*
X151423761Y-69000380D01*
X151661857Y-69000380D01*
X151757095Y-68952761D01*
X151804714Y-68905142D01*
X141787095Y-75096880D02*
X141787095Y-74096880D01*
X141549000Y-74096880D01*
X141406142Y-74144500D01*
X141310904Y-74239738D01*
X141263285Y-74334976D01*
X141215666Y-74525452D01*
X141215666Y-74668309D01*
X141263285Y-74858785D01*
X141310904Y-74954023D01*
X141406142Y-75049261D01*
X141549000Y-75096880D01*
X141787095Y-75096880D01*
X140644238Y-74525452D02*
X140739476Y-74477833D01*
X140787095Y-74430214D01*
X140834714Y-74334976D01*
X140834714Y-74287357D01*
X140787095Y-74192119D01*
X140739476Y-74144500D01*
X140644238Y-74096880D01*
X140453761Y-74096880D01*
X140358523Y-74144500D01*
X140310904Y-74192119D01*
X140263285Y-74287357D01*
X140263285Y-74334976D01*
X140310904Y-74430214D01*
X140358523Y-74477833D01*
X140453761Y-74525452D01*
X140644238Y-74525452D01*
X140739476Y-74573071D01*
X140787095Y-74620690D01*
X140834714Y-74715928D01*
X140834714Y-74906404D01*
X140787095Y-75001642D01*
X140739476Y-75049261D01*
X140644238Y-75096880D01*
X140453761Y-75096880D01*
X140358523Y-75049261D01*
X140310904Y-75001642D01*
X140263285Y-74906404D01*
X140263285Y-74715928D01*
X140310904Y-74620690D01*
X140358523Y-74573071D01*
X140453761Y-74525452D01*
X152709095Y-75096880D02*
X152709095Y-74096880D01*
X152471000Y-74096880D01*
X152328142Y-74144500D01*
X152232904Y-74239738D01*
X152185285Y-74334976D01*
X152137666Y-74525452D01*
X152137666Y-74668309D01*
X152185285Y-74858785D01*
X152232904Y-74954023D01*
X152328142Y-75049261D01*
X152471000Y-75096880D01*
X152709095Y-75096880D01*
X151661476Y-75096880D02*
X151471000Y-75096880D01*
X151375761Y-75049261D01*
X151328142Y-75001642D01*
X151232904Y-74858785D01*
X151185285Y-74668309D01*
X151185285Y-74287357D01*
X151232904Y-74192119D01*
X151280523Y-74144500D01*
X151375761Y-74096880D01*
X151566238Y-74096880D01*
X151661476Y-74144500D01*
X151709095Y-74192119D01*
X151756714Y-74287357D01*
X151756714Y-74525452D01*
X151709095Y-74620690D01*
X151661476Y-74668309D01*
X151566238Y-74715928D01*
X151375761Y-74715928D01*
X151280523Y-74668309D01*
X151232904Y-74620690D01*
X151185285Y-74525452D01*
X131341285Y-75096880D02*
X131341285Y-74096880D01*
X131103190Y-74096880D01*
X130960333Y-74144500D01*
X130865095Y-74239738D01*
X130817476Y-74334976D01*
X130769857Y-74525452D01*
X130769857Y-74668309D01*
X130817476Y-74858785D01*
X130865095Y-74954023D01*
X130960333Y-75049261D01*
X131103190Y-75096880D01*
X131341285Y-75096880D01*
X129817476Y-75096880D02*
X130388904Y-75096880D01*
X130103190Y-75096880D02*
X130103190Y-74096880D01*
X130198428Y-74239738D01*
X130293666Y-74334976D01*
X130388904Y-74382595D01*
X129198428Y-74096880D02*
X129103190Y-74096880D01*
X129007952Y-74144500D01*
X128960333Y-74192119D01*
X128912714Y-74287357D01*
X128865095Y-74477833D01*
X128865095Y-74715928D01*
X128912714Y-74906404D01*
X128960333Y-75001642D01*
X129007952Y-75049261D01*
X129103190Y-75096880D01*
X129198428Y-75096880D01*
X129293666Y-75049261D01*
X129341285Y-75001642D01*
X129388904Y-74906404D01*
X129436523Y-74715928D01*
X129436523Y-74477833D01*
X129388904Y-74287357D01*
X129341285Y-74192119D01*
X129293666Y-74144500D01*
X129198428Y-74096880D01*
X158131380Y-62751333D02*
X157655190Y-62418000D01*
X158131380Y-62179904D02*
X157131380Y-62179904D01*
X157131380Y-62560857D01*
X157179000Y-62656095D01*
X157226619Y-62703714D01*
X157321857Y-62751333D01*
X157464714Y-62751333D01*
X157559952Y-62703714D01*
X157607571Y-62656095D01*
X157655190Y-62560857D01*
X157655190Y-62179904D01*
X157131380Y-63656095D02*
X157131380Y-63179904D01*
X157607571Y-63132285D01*
X157559952Y-63179904D01*
X157512333Y-63275142D01*
X157512333Y-63513238D01*
X157559952Y-63608476D01*
X157607571Y-63656095D01*
X157702809Y-63703714D01*
X157940904Y-63703714D01*
X158036142Y-63656095D01*
X158083761Y-63608476D01*
X158131380Y-63513238D01*
X158131380Y-63275142D01*
X158083761Y-63179904D01*
X158036142Y-63132285D01*
X136287380Y-62825333D02*
X135811190Y-62492000D01*
X136287380Y-62253904D02*
X135287380Y-62253904D01*
X135287380Y-62634857D01*
X135335000Y-62730095D01*
X135382619Y-62777714D01*
X135477857Y-62825333D01*
X135620714Y-62825333D01*
X135715952Y-62777714D01*
X135763571Y-62730095D01*
X135811190Y-62634857D01*
X135811190Y-62253904D01*
X135287380Y-63682476D02*
X135287380Y-63492000D01*
X135335000Y-63396761D01*
X135382619Y-63349142D01*
X135525476Y-63253904D01*
X135715952Y-63206285D01*
X136096904Y-63206285D01*
X136192142Y-63253904D01*
X136239761Y-63301523D01*
X136287380Y-63396761D01*
X136287380Y-63587238D01*
X136239761Y-63682476D01*
X136192142Y-63730095D01*
X136096904Y-63777714D01*
X135858809Y-63777714D01*
X135763571Y-63730095D01*
X135715952Y-63682476D01*
X135668333Y-63587238D01*
X135668333Y-63396761D01*
X135715952Y-63301523D01*
X135763571Y-63253904D01*
X135858809Y-63206285D01*
X169005380Y-79684642D02*
X168529190Y-79351309D01*
X169005380Y-79113214D02*
X168005380Y-79113214D01*
X168005380Y-79494166D01*
X168053000Y-79589404D01*
X168100619Y-79637023D01*
X168195857Y-79684642D01*
X168338714Y-79684642D01*
X168433952Y-79637023D01*
X168481571Y-79589404D01*
X168529190Y-79494166D01*
X168529190Y-79113214D01*
X169005380Y-80637023D02*
X169005380Y-80065595D01*
X169005380Y-80351309D02*
X168005380Y-80351309D01*
X168148238Y-80256071D01*
X168243476Y-80160833D01*
X168291095Y-80065595D01*
X169005380Y-81589404D02*
X169005380Y-81017976D01*
X169005380Y-81303690D02*
X168005380Y-81303690D01*
X168148238Y-81208452D01*
X168243476Y-81113214D01*
X168291095Y-81017976D01*
X147161380Y-79684642D02*
X146685190Y-79351309D01*
X147161380Y-79113214D02*
X146161380Y-79113214D01*
X146161380Y-79494166D01*
X146209000Y-79589404D01*
X146256619Y-79637023D01*
X146351857Y-79684642D01*
X146494714Y-79684642D01*
X146589952Y-79637023D01*
X146637571Y-79589404D01*
X146685190Y-79494166D01*
X146685190Y-79113214D01*
X147161380Y-80637023D02*
X147161380Y-80065595D01*
X147161380Y-80351309D02*
X146161380Y-80351309D01*
X146304238Y-80256071D01*
X146399476Y-80160833D01*
X146447095Y-80065595D01*
X146256619Y-81017976D02*
X146209000Y-81065595D01*
X146161380Y-81160833D01*
X146161380Y-81398928D01*
X146209000Y-81494166D01*
X146256619Y-81541785D01*
X146351857Y-81589404D01*
X146447095Y-81589404D01*
X146589952Y-81541785D01*
X147161380Y-80970357D01*
X147161380Y-81589404D01*
X158083380Y-79637642D02*
X157607190Y-79304309D01*
X158083380Y-79066214D02*
X157083380Y-79066214D01*
X157083380Y-79447166D01*
X157131000Y-79542404D01*
X157178619Y-79590023D01*
X157273857Y-79637642D01*
X157416714Y-79637642D01*
X157511952Y-79590023D01*
X157559571Y-79542404D01*
X157607190Y-79447166D01*
X157607190Y-79066214D01*
X158083380Y-80590023D02*
X158083380Y-80018595D01*
X158083380Y-80304309D02*
X157083380Y-80304309D01*
X157226238Y-80209071D01*
X157321476Y-80113833D01*
X157369095Y-80018595D01*
X157083380Y-80923357D02*
X157083380Y-81542404D01*
X157464333Y-81209071D01*
X157464333Y-81351928D01*
X157511952Y-81447166D01*
X157559571Y-81494785D01*
X157654809Y-81542404D01*
X157892904Y-81542404D01*
X157988142Y-81494785D01*
X158035761Y-81447166D01*
X158083380Y-81351928D01*
X158083380Y-81066214D01*
X158035761Y-80970976D01*
X157988142Y-80923357D01*
X136239380Y-79764642D02*
X135763190Y-79431309D01*
X136239380Y-79193214D02*
X135239380Y-79193214D01*
X135239380Y-79574166D01*
X135287000Y-79669404D01*
X135334619Y-79717023D01*
X135429857Y-79764642D01*
X135572714Y-79764642D01*
X135667952Y-79717023D01*
X135715571Y-79669404D01*
X135763190Y-79574166D01*
X135763190Y-79193214D01*
X136239380Y-80717023D02*
X136239380Y-80145595D01*
X136239380Y-80431309D02*
X135239380Y-80431309D01*
X135382238Y-80336071D01*
X135477476Y-80240833D01*
X135525095Y-80145595D01*
X135572714Y-81574166D02*
X136239380Y-81574166D01*
X135191761Y-81336071D02*
X135906047Y-81097976D01*
X135906047Y-81717023D01*
M02*
